<?xml version="1.0" encoding="UTF-8" standalone="no"?>
<!-- Created with PhysiCell (http://PhysiCell.MathCancer.org/) -->
<svg 
 xmlns:dc="http://purl.org/dc/elements/1.1/" 
 xmlns:cc="http://creativecommons.org/ns#" 
 xmlns:rdf="http://www.w3.org/1999/02/22-rdf-syntax-ns#" 
 xmlns:svg="http://www.w3.org/2000/svg" 
 xmlns="http://www.w3.org/2000/svg" 
 version="1.1" 
 width="1000" 
 height="1070" 
 id="svg2">
  <rect x="0" y="0" width="1000" height="1070" stroke-width="2" stroke="white" fill="white"/>
  <text x="12.5" y="30"
   font-family="Arial" font-size="25" fill="black" >
   Current time: 0 days, 0 hours, and 15.00 minutes, z = 0.00 &#956;m
  </text>
  <text x="12.5" y="57.5"
   font-family="Arial" font-size="23.75" fill="black" >
   100 agents
  </text>
 <g id="tissue" 
    transform="translate(0,1070) scale(1,-1)">
  <g id="ECM">
  </g>
  <g id="cells">
   <g id="cell0">
  <circle cx="500" cy="500" r="8.41271" stroke-width="0.5" stroke="rgb(255,0,0)" fill="rgb(255,0,0)"/>
  <circle cx="500" cy="500" r="5.05167" stroke-width="0.5" stroke="black" fill="rgb(57,52,49)"/>
   </g>
   <g id="cell1">
  <circle cx="500" cy="500" r="8.41271" stroke-width="0.5" stroke="rgb(255,0,0)" fill="rgb(255,0,0)"/>
  <circle cx="500" cy="500" r="5.05167" stroke-width="0.5" stroke="black" fill="rgb(57,52,49)"/>
   </g>
   <g id="cell2">
  <circle cx="503.33" cy="501.44" r="8.41271" stroke-width="0.5" stroke="rgb(255,0,0)" fill="rgb(255,0,0)"/>
  <circle cx="503.33" cy="501.44" r="5.05167" stroke-width="0.5" stroke="black" fill="rgb(57,52,49)"/>
   </g>
   <g id="cell3">
  <circle cx="500.625" cy="501.695" r="8.41271" stroke-width="0.5" stroke="rgb(255,0,0)" fill="rgb(255,0,0)"/>
  <circle cx="500.625" cy="501.695" r="5.05167" stroke-width="0.5" stroke="black" fill="rgb(57,52,49)"/>
   </g>
   <g id="cell4">
  <circle cx="501.289" cy="498.304" r="8.41271" stroke-width="0.5" stroke="rgb(255,0,0)" fill="rgb(255,0,0)"/>
  <circle cx="501.289" cy="498.304" r="5.05167" stroke-width="0.5" stroke="black" fill="rgb(57,52,49)"/>
   </g>
   <g id="cell5">
  <circle cx="498" cy="502.406" r="8.41271" stroke-width="0.5" stroke="rgb(255,0,0)" fill="rgb(255,0,0)"/>
  <circle cx="498" cy="502.406" r="5.05167" stroke-width="0.5" stroke="black" fill="rgb(57,52,49)"/>
   </g>
   <g id="cell6">
  <circle cx="500" cy="500" r="8.41271" stroke-width="0.5" stroke="rgb(255,0,0)" fill="rgb(255,0,0)"/>
  <circle cx="500" cy="500" r="5.05167" stroke-width="0.5" stroke="black" fill="rgb(57,52,49)"/>
   </g>
   <g id="cell7">
  <circle cx="500" cy="500" r="8.41271" stroke-width="0.5" stroke="rgb(255,0,0)" fill="rgb(255,0,0)"/>
  <circle cx="500" cy="500" r="5.05167" stroke-width="0.5" stroke="black" fill="rgb(57,52,49)"/>
   </g>
   <g id="cell8">
  <circle cx="500" cy="500" r="8.41271" stroke-width="0.5" stroke="rgb(255,0,0)" fill="rgb(255,0,0)"/>
  <circle cx="500" cy="500" r="5.05167" stroke-width="0.5" stroke="black" fill="rgb(57,52,49)"/>
   </g>
   <g id="cell9">
  <circle cx="501.348" cy="499.314" r="8.41271" stroke-width="0.5" stroke="rgb(255,0,0)" fill="rgb(255,0,0)"/>
  <circle cx="501.348" cy="499.314" r="5.05167" stroke-width="0.5" stroke="black" fill="rgb(57,52,49)"/>
   </g>
   <g id="cell10">
  <circle cx="499.972" cy="501.336" r="8.41271" stroke-width="0.5" stroke="rgb(255,0,0)" fill="rgb(255,0,0)"/>
  <circle cx="499.972" cy="501.336" r="5.05167" stroke-width="0.5" stroke="black" fill="rgb(57,52,49)"/>
   </g>
   <g id="cell11">
  <circle cx="500.588" cy="497.892" r="8.41271" stroke-width="0.5" stroke="rgb(255,0,0)" fill="rgb(255,0,0)"/>
  <circle cx="500.588" cy="497.892" r="5.05167" stroke-width="0.5" stroke="black" fill="rgb(57,52,49)"/>
   </g>
   <g id="cell12">
  <circle cx="500" cy="500" r="8.41271" stroke-width="0.5" stroke="rgb(255,0,0)" fill="rgb(255,0,0)"/>
  <circle cx="500" cy="500" r="5.05167" stroke-width="0.5" stroke="black" fill="rgb(57,52,49)"/>
   </g>
   <g id="cell13">
  <circle cx="500" cy="500" r="8.41271" stroke-width="0.5" stroke="rgb(255,0,0)" fill="rgb(255,0,0)"/>
  <circle cx="500" cy="500" r="5.05167" stroke-width="0.5" stroke="black" fill="rgb(57,52,49)"/>
   </g>
   <g id="cell14">
  <circle cx="501.962" cy="498.119" r="8.41271" stroke-width="0.5" stroke="rgb(255,0,0)" fill="rgb(255,0,0)"/>
  <circle cx="501.962" cy="498.119" r="5.05167" stroke-width="0.5" stroke="black" fill="rgb(57,52,49)"/>
   </g>
   <g id="cell15">
  <circle cx="498.954" cy="496.071" r="8.41271" stroke-width="0.5" stroke="rgb(255,0,0)" fill="rgb(255,0,0)"/>
  <circle cx="498.954" cy="496.071" r="5.05167" stroke-width="0.5" stroke="black" fill="rgb(57,52,49)"/>
   </g>
   <g id="cell16">
  <circle cx="500" cy="500" r="8.41271" stroke-width="0.5" stroke="rgb(255,0,0)" fill="rgb(255,0,0)"/>
  <circle cx="500" cy="500" r="5.05167" stroke-width="0.5" stroke="black" fill="rgb(57,52,49)"/>
   </g>
   <g id="cell17">
  <circle cx="500" cy="500" r="8.41271" stroke-width="0.5" stroke="rgb(255,0,0)" fill="rgb(255,0,0)"/>
  <circle cx="500" cy="500" r="5.05167" stroke-width="0.5" stroke="black" fill="rgb(57,52,49)"/>
   </g>
   <g id="cell18">
  <circle cx="499.815" cy="500.12" r="8.41271" stroke-width="0.5" stroke="rgb(255,0,0)" fill="rgb(255,0,0)"/>
  <circle cx="499.815" cy="500.12" r="5.05167" stroke-width="0.5" stroke="black" fill="rgb(57,52,49)"/>
   </g>
   <g id="cell19">
  <circle cx="500" cy="500" r="8.41271" stroke-width="0.5" stroke="rgb(255,0,0)" fill="rgb(255,0,0)"/>
  <circle cx="500" cy="500" r="5.05167" stroke-width="0.5" stroke="black" fill="rgb(57,52,49)"/>
   </g>
   <g id="cell20">
  <circle cx="500" cy="500" r="8.41271" stroke-width="0.5" stroke="rgb(255,0,0)" fill="rgb(255,0,0)"/>
  <circle cx="500" cy="500" r="5.05167" stroke-width="0.5" stroke="black" fill="rgb(57,52,49)"/>
   </g>
   <g id="cell21">
  <circle cx="500.16" cy="500.025" r="8.41271" stroke-width="0.5" stroke="rgb(255,0,0)" fill="rgb(255,0,0)"/>
  <circle cx="500.16" cy="500.025" r="5.05167" stroke-width="0.5" stroke="black" fill="rgb(57,52,49)"/>
   </g>
   <g id="cell22">
  <circle cx="502.565" cy="499.124" r="8.41271" stroke-width="0.5" stroke="rgb(255,0,0)" fill="rgb(255,0,0)"/>
  <circle cx="502.565" cy="499.124" r="5.05167" stroke-width="0.5" stroke="black" fill="rgb(57,52,49)"/>
   </g>
   <g id="cell23">
  <circle cx="500" cy="500" r="8.41271" stroke-width="0.5" stroke="rgb(255,0,0)" fill="rgb(255,0,0)"/>
  <circle cx="500" cy="500" r="5.05167" stroke-width="0.5" stroke="black" fill="rgb(57,52,49)"/>
   </g>
   <g id="cell24">
  <circle cx="501.065" cy="500.6" r="8.41271" stroke-width="0.5" stroke="rgb(255,0,0)" fill="rgb(255,0,0)"/>
  <circle cx="501.065" cy="500.6" r="5.05167" stroke-width="0.5" stroke="black" fill="rgb(57,52,49)"/>
   </g>
   <g id="cell25">
  <circle cx="500" cy="500" r="8.41271" stroke-width="0.5" stroke="rgb(255,0,0)" fill="rgb(255,0,0)"/>
  <circle cx="500" cy="500" r="5.05167" stroke-width="0.5" stroke="black" fill="rgb(57,52,49)"/>
   </g>
   <g id="cell26">
  <circle cx="499.458" cy="500.473" r="8.41271" stroke-width="0.5" stroke="rgb(255,0,0)" fill="rgb(255,0,0)"/>
  <circle cx="499.458" cy="500.473" r="5.05167" stroke-width="0.5" stroke="black" fill="rgb(57,52,49)"/>
   </g>
   <g id="cell27">
  <circle cx="500.652" cy="503.33" r="8.41271" stroke-width="0.5" stroke="rgb(255,0,0)" fill="rgb(255,0,0)"/>
  <circle cx="500.652" cy="503.33" r="5.05167" stroke-width="0.5" stroke="black" fill="rgb(57,52,49)"/>
   </g>
   <g id="cell28">
  <circle cx="502.502" cy="499.774" r="8.41271" stroke-width="0.5" stroke="rgb(255,0,0)" fill="rgb(255,0,0)"/>
  <circle cx="502.502" cy="499.774" r="5.05167" stroke-width="0.5" stroke="black" fill="rgb(57,52,49)"/>
   </g>
   <g id="cell29">
  <circle cx="500" cy="500" r="8.41271" stroke-width="0.5" stroke="rgb(255,0,0)" fill="rgb(255,0,0)"/>
  <circle cx="500" cy="500" r="5.05167" stroke-width="0.5" stroke="black" fill="rgb(57,52,49)"/>
   </g>
   <g id="cell30">
  <circle cx="500" cy="500" r="8.41271" stroke-width="0.5" stroke="rgb(255,0,0)" fill="rgb(255,0,0)"/>
  <circle cx="500" cy="500" r="5.05167" stroke-width="0.5" stroke="black" fill="rgb(57,52,49)"/>
   </g>
   <g id="cell31">
  <circle cx="497.693" cy="501.329" r="8.41271" stroke-width="0.5" stroke="rgb(255,0,0)" fill="rgb(255,0,0)"/>
  <circle cx="497.693" cy="501.329" r="5.05167" stroke-width="0.5" stroke="black" fill="rgb(57,52,49)"/>
   </g>
   <g id="cell32">
  <circle cx="499.662" cy="498.982" r="8.41271" stroke-width="0.5" stroke="rgb(255,0,0)" fill="rgb(255,0,0)"/>
  <circle cx="499.662" cy="498.982" r="5.05167" stroke-width="0.5" stroke="black" fill="rgb(57,52,49)"/>
   </g>
   <g id="cell33">
  <circle cx="501.292" cy="500.197" r="8.41271" stroke-width="0.5" stroke="rgb(255,0,0)" fill="rgb(255,0,0)"/>
  <circle cx="501.292" cy="500.197" r="5.05167" stroke-width="0.5" stroke="black" fill="rgb(57,52,49)"/>
   </g>
   <g id="cell34">
  <circle cx="500" cy="500" r="8.41271" stroke-width="0.5" stroke="rgb(255,0,0)" fill="rgb(255,0,0)"/>
  <circle cx="500" cy="500" r="5.05167" stroke-width="0.5" stroke="black" fill="rgb(57,52,49)"/>
   </g>
   <g id="cell35">
  <circle cx="499.297" cy="497.162" r="8.41271" stroke-width="0.5" stroke="rgb(255,0,0)" fill="rgb(255,0,0)"/>
  <circle cx="499.297" cy="497.162" r="5.05167" stroke-width="0.5" stroke="black" fill="rgb(57,52,49)"/>
   </g>
   <g id="cell36">
  <circle cx="499.981" cy="501.326" r="8.41271" stroke-width="0.5" stroke="rgb(255,0,0)" fill="rgb(255,0,0)"/>
  <circle cx="499.981" cy="501.326" r="5.05167" stroke-width="0.5" stroke="black" fill="rgb(57,52,49)"/>
   </g>
   <g id="cell37">
  <circle cx="502.478" cy="500.274" r="8.41271" stroke-width="0.5" stroke="rgb(255,0,0)" fill="rgb(255,0,0)"/>
  <circle cx="502.478" cy="500.274" r="5.05167" stroke-width="0.5" stroke="black" fill="rgb(57,52,49)"/>
   </g>
   <g id="cell38">
  <circle cx="500" cy="500" r="8.41271" stroke-width="0.5" stroke="rgb(255,0,0)" fill="rgb(255,0,0)"/>
  <circle cx="500" cy="500" r="5.05167" stroke-width="0.5" stroke="black" fill="rgb(57,52,49)"/>
   </g>
   <g id="cell39">
  <circle cx="500" cy="500" r="8.41271" stroke-width="0.5" stroke="rgb(255,0,0)" fill="rgb(255,0,0)"/>
  <circle cx="500" cy="500" r="5.05167" stroke-width="0.5" stroke="black" fill="rgb(57,52,49)"/>
   </g>
   <g id="cell40">
  <circle cx="497.523" cy="499.381" r="8.41271" stroke-width="0.5" stroke="rgb(255,0,0)" fill="rgb(255,0,0)"/>
  <circle cx="497.523" cy="499.381" r="5.05167" stroke-width="0.5" stroke="black" fill="rgb(57,52,49)"/>
   </g>
   <g id="cell41">
  <circle cx="500" cy="500" r="8.41271" stroke-width="0.5" stroke="rgb(255,0,0)" fill="rgb(255,0,0)"/>
  <circle cx="500" cy="500" r="5.05167" stroke-width="0.5" stroke="black" fill="rgb(57,52,49)"/>
   </g>
   <g id="cell42">
  <circle cx="500" cy="500" r="8.41271" stroke-width="0.5" stroke="rgb(255,0,0)" fill="rgb(255,0,0)"/>
  <circle cx="500" cy="500" r="5.05167" stroke-width="0.5" stroke="black" fill="rgb(57,52,49)"/>
   </g>
   <g id="cell43">
  <circle cx="497.659" cy="502.375" r="8.41271" stroke-width="0.5" stroke="rgb(255,0,0)" fill="rgb(255,0,0)"/>
  <circle cx="497.659" cy="502.375" r="5.05167" stroke-width="0.5" stroke="black" fill="rgb(57,52,49)"/>
   </g>
   <g id="cell44">
  <circle cx="500" cy="500" r="8.41271" stroke-width="0.5" stroke="rgb(255,0,0)" fill="rgb(255,0,0)"/>
  <circle cx="500" cy="500" r="5.05167" stroke-width="0.5" stroke="black" fill="rgb(57,52,49)"/>
   </g>
   <g id="cell45">
  <circle cx="499.812" cy="503.038" r="8.41271" stroke-width="0.5" stroke="rgb(255,0,0)" fill="rgb(255,0,0)"/>
  <circle cx="499.812" cy="503.038" r="5.05167" stroke-width="0.5" stroke="black" fill="rgb(57,52,49)"/>
   </g>
   <g id="cell46">
  <circle cx="499.971" cy="500.343" r="8.41271" stroke-width="0.5" stroke="rgb(255,0,0)" fill="rgb(255,0,0)"/>
  <circle cx="499.971" cy="500.343" r="5.05167" stroke-width="0.5" stroke="black" fill="rgb(57,52,49)"/>
   </g>
   <g id="cell47">
  <circle cx="497.879" cy="498.76" r="8.41271" stroke-width="0.5" stroke="rgb(255,0,0)" fill="rgb(255,0,0)"/>
  <circle cx="497.879" cy="498.76" r="5.05167" stroke-width="0.5" stroke="black" fill="rgb(57,52,49)"/>
   </g>
   <g id="cell48">
  <circle cx="500" cy="500" r="8.41271" stroke-width="0.5" stroke="rgb(255,0,0)" fill="rgb(255,0,0)"/>
  <circle cx="500" cy="500" r="5.05167" stroke-width="0.5" stroke="black" fill="rgb(57,52,49)"/>
   </g>
   <g id="cell49">
  <circle cx="500" cy="500" r="8.41271" stroke-width="0.5" stroke="rgb(255,0,0)" fill="rgb(255,0,0)"/>
  <circle cx="500" cy="500" r="5.05167" stroke-width="0.5" stroke="black" fill="rgb(57,52,49)"/>
   </g>
   <g id="cell50">
  <circle cx="499.653" cy="502.994" r="8.41271" stroke-width="0.5" stroke="rgb(255,0,0)" fill="rgb(255,0,0)"/>
  <circle cx="499.653" cy="502.994" r="5.05167" stroke-width="0.5" stroke="black" fill="rgb(57,52,49)"/>
   </g>
   <g id="cell51">
  <circle cx="498.449" cy="496.85" r="8.41271" stroke-width="0.5" stroke="rgb(255,0,0)" fill="rgb(255,0,0)"/>
  <circle cx="498.449" cy="496.85" r="5.05167" stroke-width="0.5" stroke="black" fill="rgb(57,52,49)"/>
   </g>
   <g id="cell52">
  <circle cx="500" cy="500" r="8.41271" stroke-width="0.5" stroke="rgb(255,0,0)" fill="rgb(255,0,0)"/>
  <circle cx="500" cy="500" r="5.05167" stroke-width="0.5" stroke="black" fill="rgb(57,52,49)"/>
   </g>
   <g id="cell53">
  <circle cx="500.02" cy="501.997" r="8.41271" stroke-width="0.5" stroke="rgb(255,0,0)" fill="rgb(255,0,0)"/>
  <circle cx="500.02" cy="501.997" r="5.05167" stroke-width="0.5" stroke="black" fill="rgb(57,52,49)"/>
   </g>
   <g id="cell54">
  <circle cx="501.385" cy="499.826" r="8.41271" stroke-width="0.5" stroke="rgb(255,0,0)" fill="rgb(255,0,0)"/>
  <circle cx="501.385" cy="499.826" r="5.05167" stroke-width="0.5" stroke="black" fill="rgb(57,52,49)"/>
   </g>
   <g id="cell55">
  <circle cx="500.303" cy="499.621" r="8.41271" stroke-width="0.5" stroke="rgb(255,0,0)" fill="rgb(255,0,0)"/>
  <circle cx="500.303" cy="499.621" r="5.05167" stroke-width="0.5" stroke="black" fill="rgb(57,52,49)"/>
   </g>
   <g id="cell56">
  <circle cx="499.791" cy="500.37" r="8.41271" stroke-width="0.5" stroke="rgb(255,0,0)" fill="rgb(255,0,0)"/>
  <circle cx="499.791" cy="500.37" r="5.05167" stroke-width="0.5" stroke="black" fill="rgb(57,52,49)"/>
   </g>
   <g id="cell57">
  <circle cx="500.723" cy="503.945" r="8.41271" stroke-width="0.5" stroke="rgb(255,0,0)" fill="rgb(255,0,0)"/>
  <circle cx="500.723" cy="503.945" r="5.05167" stroke-width="0.5" stroke="black" fill="rgb(57,52,49)"/>
   </g>
   <g id="cell58">
  <circle cx="500" cy="500" r="8.41271" stroke-width="0.5" stroke="rgb(255,0,0)" fill="rgb(255,0,0)"/>
  <circle cx="500" cy="500" r="5.05167" stroke-width="0.5" stroke="black" fill="rgb(57,52,49)"/>
   </g>
   <g id="cell59">
  <circle cx="500" cy="500" r="8.41271" stroke-width="0.5" stroke="rgb(255,0,0)" fill="rgb(255,0,0)"/>
  <circle cx="500" cy="500" r="5.05167" stroke-width="0.5" stroke="black" fill="rgb(57,52,49)"/>
   </g>
   <g id="cell60">
  <circle cx="498.499" cy="503.877" r="8.41271" stroke-width="0.5" stroke="rgb(255,0,0)" fill="rgb(255,0,0)"/>
  <circle cx="498.499" cy="503.877" r="5.05167" stroke-width="0.5" stroke="black" fill="rgb(57,52,49)"/>
   </g>
   <g id="cell61">
  <circle cx="497.522" cy="498.09" r="8.41271" stroke-width="0.5" stroke="rgb(255,0,0)" fill="rgb(255,0,0)"/>
  <circle cx="497.522" cy="498.09" r="5.05167" stroke-width="0.5" stroke="black" fill="rgb(57,52,49)"/>
   </g>
   <g id="cell62">
  <circle cx="499.935" cy="499.729" r="8.41271" stroke-width="0.5" stroke="rgb(255,0,0)" fill="rgb(255,0,0)"/>
  <circle cx="499.935" cy="499.729" r="5.05167" stroke-width="0.5" stroke="black" fill="rgb(57,52,49)"/>
   </g>
   <g id="cell63">
  <circle cx="500" cy="500" r="8.41271" stroke-width="0.5" stroke="rgb(255,0,0)" fill="rgb(255,0,0)"/>
  <circle cx="500" cy="500" r="5.05167" stroke-width="0.5" stroke="black" fill="rgb(57,52,49)"/>
   </g>
   <g id="cell64">
  <circle cx="497.741" cy="498.699" r="8.41271" stroke-width="0.5" stroke="rgb(255,0,0)" fill="rgb(255,0,0)"/>
  <circle cx="497.741" cy="498.699" r="5.05167" stroke-width="0.5" stroke="black" fill="rgb(57,52,49)"/>
   </g>
   <g id="cell65">
  <circle cx="500" cy="500" r="8.41271" stroke-width="0.5" stroke="rgb(255,0,0)" fill="rgb(255,0,0)"/>
  <circle cx="500" cy="500" r="5.05167" stroke-width="0.5" stroke="black" fill="rgb(57,52,49)"/>
   </g>
   <g id="cell66">
  <circle cx="499.834" cy="499.421" r="8.41271" stroke-width="0.5" stroke="rgb(255,0,0)" fill="rgb(255,0,0)"/>
  <circle cx="499.834" cy="499.421" r="5.05167" stroke-width="0.5" stroke="black" fill="rgb(57,52,49)"/>
   </g>
   <g id="cell67">
  <circle cx="500" cy="500" r="8.41271" stroke-width="0.5" stroke="rgb(255,0,0)" fill="rgb(255,0,0)"/>
  <circle cx="500" cy="500" r="5.05167" stroke-width="0.5" stroke="black" fill="rgb(57,52,49)"/>
   </g>
   <g id="cell68">
  <circle cx="500.134" cy="495.948" r="8.41271" stroke-width="0.5" stroke="rgb(255,0,0)" fill="rgb(255,0,0)"/>
  <circle cx="500.134" cy="495.948" r="5.05167" stroke-width="0.5" stroke="black" fill="rgb(57,52,49)"/>
   </g>
   <g id="cell69">
  <circle cx="500" cy="500" r="8.41271" stroke-width="0.5" stroke="rgb(255,0,0)" fill="rgb(255,0,0)"/>
  <circle cx="500" cy="500" r="5.05167" stroke-width="0.5" stroke="black" fill="rgb(57,52,49)"/>
   </g>
   <g id="cell70">
  <circle cx="500" cy="500" r="8.41271" stroke-width="0.5" stroke="rgb(255,0,0)" fill="rgb(255,0,0)"/>
  <circle cx="500" cy="500" r="5.05167" stroke-width="0.5" stroke="black" fill="rgb(57,52,49)"/>
   </g>
   <g id="cell71">
  <circle cx="496.187" cy="500.271" r="8.41271" stroke-width="0.5" stroke="rgb(255,0,0)" fill="rgb(255,0,0)"/>
  <circle cx="496.187" cy="500.271" r="5.05167" stroke-width="0.5" stroke="black" fill="rgb(57,52,49)"/>
   </g>
   <g id="cell72">
  <circle cx="499.931" cy="498.136" r="8.41271" stroke-width="0.5" stroke="rgb(255,0,0)" fill="rgb(255,0,0)"/>
  <circle cx="499.931" cy="498.136" r="5.05167" stroke-width="0.5" stroke="black" fill="rgb(57,52,49)"/>
   </g>
   <g id="cell73">
  <circle cx="501.376" cy="501.171" r="8.41271" stroke-width="0.5" stroke="rgb(255,0,0)" fill="rgb(255,0,0)"/>
  <circle cx="501.376" cy="501.171" r="5.05167" stroke-width="0.5" stroke="black" fill="rgb(57,52,49)"/>
   </g>
   <g id="cell74">
  <circle cx="500" cy="500" r="8.41271" stroke-width="0.5" stroke="rgb(255,0,0)" fill="rgb(255,0,0)"/>
  <circle cx="500" cy="500" r="5.05167" stroke-width="0.5" stroke="black" fill="rgb(57,52,49)"/>
   </g>
   <g id="cell75">
  <circle cx="501.074" cy="499.091" r="8.41271" stroke-width="0.5" stroke="rgb(255,0,0)" fill="rgb(255,0,0)"/>
  <circle cx="501.074" cy="499.091" r="5.05167" stroke-width="0.5" stroke="black" fill="rgb(57,52,49)"/>
   </g>
   <g id="cell76">
  <circle cx="500.522" cy="499.699" r="8.41271" stroke-width="0.5" stroke="rgb(255,0,0)" fill="rgb(255,0,0)"/>
  <circle cx="500.522" cy="499.699" r="5.05167" stroke-width="0.5" stroke="black" fill="rgb(57,52,49)"/>
   </g>
   <g id="cell77">
  <circle cx="500" cy="500" r="8.41271" stroke-width="0.5" stroke="rgb(255,0,0)" fill="rgb(255,0,0)"/>
  <circle cx="500" cy="500" r="5.05167" stroke-width="0.5" stroke="black" fill="rgb(57,52,49)"/>
   </g>
   <g id="cell78">
  <circle cx="500.372" cy="499.897" r="8.41271" stroke-width="0.5" stroke="rgb(255,0,0)" fill="rgb(255,0,0)"/>
  <circle cx="500.372" cy="499.897" r="5.05167" stroke-width="0.5" stroke="black" fill="rgb(57,52,49)"/>
   </g>
   <g id="cell79">
  <circle cx="500" cy="500" r="8.41271" stroke-width="0.5" stroke="rgb(255,0,0)" fill="rgb(255,0,0)"/>
  <circle cx="500" cy="500" r="5.05167" stroke-width="0.5" stroke="black" fill="rgb(57,52,49)"/>
   </g>
   <g id="cell80">
  <circle cx="500" cy="500" r="8.41271" stroke-width="0.5" stroke="rgb(255,0,0)" fill="rgb(255,0,0)"/>
  <circle cx="500" cy="500" r="5.05167" stroke-width="0.5" stroke="black" fill="rgb(57,52,49)"/>
   </g>
   <g id="cell81">
  <circle cx="500.562" cy="498.885" r="8.41271" stroke-width="0.5" stroke="rgb(255,0,0)" fill="rgb(255,0,0)"/>
  <circle cx="500.562" cy="498.885" r="5.05167" stroke-width="0.5" stroke="black" fill="rgb(57,52,49)"/>
   </g>
   <g id="cell82">
  <circle cx="499.748" cy="501.073" r="8.41271" stroke-width="0.5" stroke="rgb(255,0,0)" fill="rgb(255,0,0)"/>
  <circle cx="499.748" cy="501.073" r="5.05167" stroke-width="0.5" stroke="black" fill="rgb(57,52,49)"/>
   </g>
   <g id="cell83">
  <circle cx="500" cy="500" r="8.41271" stroke-width="0.5" stroke="rgb(255,0,0)" fill="rgb(255,0,0)"/>
  <circle cx="500" cy="500" r="5.05167" stroke-width="0.5" stroke="black" fill="rgb(57,52,49)"/>
   </g>
   <g id="cell84">
  <circle cx="500" cy="500" r="8.41271" stroke-width="0.5" stroke="rgb(255,0,0)" fill="rgb(255,0,0)"/>
  <circle cx="500" cy="500" r="5.05167" stroke-width="0.5" stroke="black" fill="rgb(57,52,49)"/>
   </g>
   <g id="cell85">
  <circle cx="500.733" cy="499.067" r="8.41271" stroke-width="0.5" stroke="rgb(255,0,0)" fill="rgb(255,0,0)"/>
  <circle cx="500.733" cy="499.067" r="5.05167" stroke-width="0.5" stroke="black" fill="rgb(57,52,49)"/>
   </g>
   <g id="cell86">
  <circle cx="497.894" cy="498.678" r="8.41271" stroke-width="0.5" stroke="rgb(255,0,0)" fill="rgb(255,0,0)"/>
  <circle cx="497.894" cy="498.678" r="5.05167" stroke-width="0.5" stroke="black" fill="rgb(57,52,49)"/>
   </g>
   <g id="cell87">
  <circle cx="499.221" cy="498.336" r="8.41271" stroke-width="0.5" stroke="rgb(255,0,0)" fill="rgb(255,0,0)"/>
  <circle cx="499.221" cy="498.336" r="5.05167" stroke-width="0.5" stroke="black" fill="rgb(57,52,49)"/>
   </g>
   <g id="cell88">
  <circle cx="500" cy="500" r="8.41271" stroke-width="0.5" stroke="rgb(255,0,0)" fill="rgb(255,0,0)"/>
  <circle cx="500" cy="500" r="5.05167" stroke-width="0.5" stroke="black" fill="rgb(57,52,49)"/>
   </g>
   <g id="cell89">
  <circle cx="501.692" cy="497.097" r="8.41271" stroke-width="0.5" stroke="rgb(255,0,0)" fill="rgb(255,0,0)"/>
  <circle cx="501.692" cy="497.097" r="5.05167" stroke-width="0.5" stroke="black" fill="rgb(57,52,49)"/>
   </g>
   <g id="cell90">
  <circle cx="500" cy="500" r="8.41271" stroke-width="0.5" stroke="rgb(255,0,0)" fill="rgb(255,0,0)"/>
  <circle cx="500" cy="500" r="5.05167" stroke-width="0.5" stroke="black" fill="rgb(57,52,49)"/>
   </g>
   <g id="cell91">
  <circle cx="498.255" cy="501.639" r="8.41271" stroke-width="0.5" stroke="rgb(255,0,0)" fill="rgb(255,0,0)"/>
  <circle cx="498.255" cy="501.639" r="5.05167" stroke-width="0.5" stroke="black" fill="rgb(57,52,49)"/>
   </g>
   <g id="cell92">
  <circle cx="500.511" cy="498.703" r="8.41271" stroke-width="0.5" stroke="rgb(255,0,0)" fill="rgb(255,0,0)"/>
  <circle cx="500.511" cy="498.703" r="5.05167" stroke-width="0.5" stroke="black" fill="rgb(57,52,49)"/>
   </g>
   <g id="cell93">
  <circle cx="500.358" cy="499.631" r="8.41271" stroke-width="0.5" stroke="rgb(255,0,0)" fill="rgb(255,0,0)"/>
  <circle cx="500.358" cy="499.631" r="5.05167" stroke-width="0.5" stroke="black" fill="rgb(57,52,49)"/>
   </g>
   <g id="cell94">
  <circle cx="500" cy="500" r="8.41271" stroke-width="0.5" stroke="rgb(255,0,0)" fill="rgb(255,0,0)"/>
  <circle cx="500" cy="500" r="5.05167" stroke-width="0.5" stroke="black" fill="rgb(57,52,49)"/>
   </g>
   <g id="cell95">
  <circle cx="500" cy="500" r="8.41271" stroke-width="0.5" stroke="rgb(255,0,0)" fill="rgb(255,0,0)"/>
  <circle cx="500" cy="500" r="5.05167" stroke-width="0.5" stroke="black" fill="rgb(57,52,49)"/>
   </g>
   <g id="cell96">
  <circle cx="502.567" cy="501.087" r="8.41271" stroke-width="0.5" stroke="rgb(255,0,0)" fill="rgb(255,0,0)"/>
  <circle cx="502.567" cy="501.087" r="5.05167" stroke-width="0.5" stroke="black" fill="rgb(57,52,49)"/>
   </g>
   <g id="cell97">
  <circle cx="500" cy="500" r="8.41271" stroke-width="0.5" stroke="rgb(255,0,0)" fill="rgb(255,0,0)"/>
  <circle cx="500" cy="500" r="5.05167" stroke-width="0.5" stroke="black" fill="rgb(57,52,49)"/>
   </g>
   <g id="cell98">
  <circle cx="502.446" cy="500.914" r="8.41271" stroke-width="0.5" stroke="rgb(255,0,0)" fill="rgb(255,0,0)"/>
  <circle cx="502.446" cy="500.914" r="5.05167" stroke-width="0.5" stroke="black" fill="rgb(57,52,49)"/>
   </g>
   <g id="cell99">
  <circle cx="498.657" cy="502.363" r="8.41271" stroke-width="0.5" stroke="rgb(255,0,0)" fill="rgb(255,0,0)"/>
  <circle cx="498.657" cy="502.363" r="5.05167" stroke-width="0.5" stroke="black" fill="rgb(57,52,49)"/>
   </g>
  </g>
 </g>
  <rect x="775" y="1035" width="200" height="10" stroke-width="2" stroke="rgb(255,255,255)" fill="rgb(0,0,0)"/>
  <text x="781.25" y="1028.75"
   font-family="Arial" font-size="25" fill="black" >
   200 &#956;m
  </text>
  <text x="25" y="1045"
   font-family="Arial" font-size="18.75" fill="black" >
   0 days, 0 hours, 0 minutes, and 0.5619 seconds
  </text>
  <rect x="0" y="70" width="1000" height="1000" stroke-width="2" stroke="rgb(0,0,0)" fill="none"/>
</svg>
