<?xml version="1.0" encoding="UTF-8" standalone="no"?>
<svg
   xmlns:dc="http://purl.org/dc/elements/1.1/"
   xmlns:cc="http://creativecommons.org/ns#"
   xmlns:rdf="http://www.w3.org/1999/02/22-rdf-syntax-ns#"
   xmlns:svg="http://www.w3.org/2000/svg"
   xmlns="http://www.w3.org/2000/svg"
   xmlns:xlink="http://www.w3.org/1999/xlink"
   xmlns:sodipodi="http://sodipodi.sourceforge.net/DTD/sodipodi-0.dtd"
   xmlns:inkscape="http://www.inkscape.org/namespaces/inkscape"
   inkscape:version="1.0 (4035a4fb49, 2020-05-01)"
   sodipodi:docname="Figure_2.svg"
   id="svg925"
   width="576pt"
   viewBox="0 0 576 576"
   version="1.1"
   height="576pt">
  <metadata
     id="metadata929">
    <rdf:RDF>
      <cc:Work
         rdf:about="">
        <dc:format>image/svg+xml</dc:format>
        <dc:type
           rdf:resource="http://purl.org/dc/dcmitype/StillImage" />
      </cc:Work>
    </rdf:RDF>
  </metadata>
  <sodipodi:namedview
     inkscape:current-layer="svg925"
     inkscape:window-maximized="1"
     inkscape:window-y="-8"
     inkscape:window-x="-8"
     inkscape:cy="384"
     inkscape:cx="384"
     inkscape:zoom="1.1067708"
     showgrid="false"
     id="namedview927"
     inkscape:window-height="1017"
     inkscape:window-width="1920"
     inkscape:pageshadow="2"
     inkscape:pageopacity="0"
     guidetolerance="10"
     gridtolerance="10"
     objecttolerance="10"
     borderopacity="1"
     bordercolor="#666666"
     pagecolor="#ffffff" />
  <defs
     id="defs4">
    <style
       id="style2"
       type="text/css">
*{stroke-linecap:butt;stroke-linejoin:round;}
  </style>
  </defs>
  <g
     inkscape:export-ydpi="96"
     inkscape:export-xdpi="96"
     id="figure_1">
    <g
       id="patch_1">
      <path
         id="path6"
         style="fill:#ffffff;"
         d="M 0 576  L 576 576  L 576 0  L 0 0  z " />
    </g>
    <g
       id="axes_1">
      <g
         id="patch_2">
        <path
           id="path9"
           style="fill:#ffffff;"
           d="M 57.6 242.042553  L 270.469565 242.042553  L 270.469565 28.8  L 57.6 28.8  z " />
      </g>
      <g
         id="patch_3">
        <path
           id="path12"
           style="fill:#ff0000;opacity:0.4;stroke:#ffffff;stroke-linejoin:miter;"
           d="M 97.59078 242.042553  L 112.356114 242.042553  L 112.356114 126.776308  L 97.59078 126.776308  z "
           clip-path="url(#pda6c023946)" />
      </g>
      <g
         id="patch_4">
        <path
           id="path15"
           style="fill:#ff0000;opacity:0.4;stroke:#ffffff;stroke-linejoin:miter;"
           d="M 112.356114 242.042553  L 127.121448 242.042553  L 127.121448 126.776308  L 112.356114 126.776308  z "
           clip-path="url(#pda6c023946)" />
      </g>
      <g
         id="patch_5">
        <path
           id="path18"
           style="fill:#ff0000;opacity:0.4;stroke:#ffffff;stroke-linejoin:miter;"
           d="M 127.121448 242.042553  L 141.886782 242.042553  L 141.886782 38.954407  L 127.121448 38.954407  z "
           clip-path="url(#pda6c023946)" />
      </g>
      <g
         id="patch_6">
        <path
           id="path21"
           style="fill:#ff0000;opacity:0.4;stroke:#ffffff;stroke-linejoin:miter;"
           d="M 141.886782 242.042553  L 156.652116 242.042553  L 156.652116 93.843095  L 141.886782 93.843095  z "
           clip-path="url(#pda6c023946)" />
      </g>
      <g
         id="patch_7">
        <path
           id="path24"
           style="fill:#ff0000;opacity:0.4;stroke:#ffffff;stroke-linejoin:miter;"
           d="M 156.652116 242.042553  L 171.41745 242.042553  L 171.41745 44.443276  L 156.652116 44.443276  z "
           clip-path="url(#pda6c023946)" />
      </g>
      <g
         id="patch_8">
        <path
           id="path27"
           style="fill:#ff0000;opacity:0.4;stroke:#ffffff;stroke-linejoin:miter;"
           d="M 171.41745 242.042553  L 186.182784 242.042553  L 186.182784 71.88762  L 171.41745 71.88762  z "
           clip-path="url(#pda6c023946)" />
      </g>
      <g
         id="patch_9">
        <path
           id="path30"
           style="fill:#ff0000;opacity:0.4;stroke:#ffffff;stroke-linejoin:miter;"
           d="M 186.182784 242.042553  L 200.948117 242.042553  L 200.948117 154.220652  L 186.182784 154.220652  z "
           clip-path="url(#pda6c023946)" />
      </g>
      <g
         id="patch_10">
        <path
           id="path33"
           style="fill:#ff0000;opacity:0.4;stroke:#ffffff;stroke-linejoin:miter;"
           d="M 200.948117 242.042553  L 215.713451 242.042553  L 215.713451 187.153865  L 200.948117 187.153865  z "
           clip-path="url(#pda6c023946)" />
      </g>
      <g
         id="patch_11">
        <path
           id="path36"
           style="fill:#ff0000;opacity:0.4;stroke:#ffffff;stroke-linejoin:miter;"
           d="M 215.713451 242.042553  L 230.478785 242.042553  L 230.478785 236.553684  L 215.713451 236.553684  z "
           clip-path="url(#pda6c023946)" />
      </g>
      <g
         id="matplotlib.axis_1">
        <g
           id="xtick_1">
          <g
             id="line2d_1">
            <defs
               id="defs40">
              <path
                 style="stroke:#000000;stroke-width:0.8;"
                 id="m85cca8d064"
                 d="M 0 0  L 0 3.5  " />
            </defs>
            <g
               id="g44">
              <use
                 id="use42"
                 y="242.042553"
                 xlink:href="#m85cca8d064"
                 x="97.514233"
                 style="stroke:#000000;stroke-width:0.8;" />
            </g>
          </g>
          <g
             id="text_1">
            <!-- 0.0 -->
            <defs
               id="defs49">
              <path
                 id="ArialMT-48"
                 d="M 4.15625 35.296875  Q 4.15625 48 6.765625 55.734375  Q 9.375 63.484375 14.515625 67.671875  Q 19.671875 71.875 27.484375 71.875  Q 33.25 71.875 37.59375 69.546875  Q 41.9375 67.234375 44.765625 62.859375  Q 47.609375 58.5 49.21875 52.21875  Q 50.828125 45.953125 50.828125 35.296875  Q 50.828125 22.703125 48.234375 14.96875  Q 45.65625 7.234375 40.5 3  Q 35.359375 -1.21875 27.484375 -1.21875  Q 17.140625 -1.21875 11.234375 6.203125  Q 4.15625 15.140625 4.15625 35.296875  z M 13.1875 35.296875  Q 13.1875 17.671875 17.3125 11.828125  Q 21.4375 6 27.484375 6  Q 33.546875 6 37.671875 11.859375  Q 41.796875 17.71875 41.796875 35.296875  Q 41.796875 52.984375 37.671875 58.78125  Q 33.546875 64.59375 27.390625 64.59375  Q 21.34375 64.59375 17.71875 59.46875  Q 13.1875 52.9375 13.1875 35.296875  z " />
              <path
                 id="ArialMT-46"
                 d="M 9.078125 0  L 9.078125 10.015625  L 19.09375 10.015625  L 19.09375 0  z " />
            </defs>
            <g
               id="g57"
               transform="translate(87.506233 259.349803)scale(0.144 -0.144)">
              <use
                 id="use51"
                 xlink:href="#ArialMT-48" />
              <use
                 id="use53"
                 xlink:href="#ArialMT-46"
                 x="55.615234" />
              <use
                 id="use55"
                 xlink:href="#ArialMT-48"
                 x="83.398438" />
            </g>
          </g>
        </g>
        <g
           id="xtick_2">
          <g
             id="line2d_2">
            <g
               id="g63">
              <use
                 id="use61"
                 y="242.042553"
                 xlink:href="#m85cca8d064"
                 x="178.328874"
                 style="stroke:#000000;stroke-width:0.8;" />
            </g>
          </g>
          <g
             id="text_2">
            <!-- 0.2 -->
            <defs
               id="defs67">
              <path
                 id="ArialMT-50"
                 d="M 50.34375 8.453125  L 50.34375 0  L 3.03125 0  Q 2.9375 3.171875 4.046875 6.109375  Q 5.859375 10.9375 9.828125 15.625  Q 13.8125 20.3125 21.34375 26.46875  Q 33.015625 36.03125 37.109375 41.625  Q 41.21875 47.21875 41.21875 52.203125  Q 41.21875 57.421875 37.46875 61  Q 33.734375 64.59375 27.734375 64.59375  Q 21.390625 64.59375 17.578125 60.78125  Q 13.765625 56.984375 13.71875 50.25  L 4.6875 51.171875  Q 5.609375 61.28125 11.65625 66.578125  Q 17.71875 71.875 27.9375 71.875  Q 38.234375 71.875 44.234375 66.15625  Q 50.25 60.453125 50.25 52  Q 50.25 47.703125 48.484375 43.546875  Q 46.734375 39.40625 42.65625 34.8125  Q 38.578125 30.21875 29.109375 22.21875  Q 21.1875 15.578125 18.9375 13.203125  Q 16.703125 10.84375 15.234375 8.453125  z " />
            </defs>
            <g
               id="g75"
               transform="translate(168.320874 259.349803)scale(0.144 -0.144)">
              <use
                 id="use69"
                 xlink:href="#ArialMT-48" />
              <use
                 id="use71"
                 xlink:href="#ArialMT-46"
                 x="55.615234" />
              <use
                 id="use73"
                 xlink:href="#ArialMT-50"
                 x="83.398438" />
            </g>
          </g>
        </g>
        <g
           id="xtick_3">
          <g
             id="line2d_3">
            <g
               id="g81">
              <use
                 id="use79"
                 y="242.042553"
                 xlink:href="#m85cca8d064"
                 x="259.143514"
                 style="stroke:#000000;stroke-width:0.8;" />
            </g>
          </g>
          <g
             id="text_3">
            <!-- 0.4 -->
            <defs
               id="defs85">
              <path
                 id="ArialMT-52"
                 d="M 32.328125 0  L 32.328125 17.140625  L 1.265625 17.140625  L 1.265625 25.203125  L 33.9375 71.578125  L 41.109375 71.578125  L 41.109375 25.203125  L 50.78125 25.203125  L 50.78125 17.140625  L 41.109375 17.140625  L 41.109375 0  z M 32.328125 25.203125  L 32.328125 57.46875  L 9.90625 25.203125  z " />
            </defs>
            <g
               id="g93"
               transform="translate(249.135514 259.349803)scale(0.144 -0.144)">
              <use
                 id="use87"
                 xlink:href="#ArialMT-48" />
              <use
                 id="use89"
                 xlink:href="#ArialMT-46"
                 x="55.615234" />
              <use
                 id="use91"
                 xlink:href="#ArialMT-52"
                 x="83.398438" />
            </g>
          </g>
        </g>
        <g
           id="text_4">
          <!-- Bias -->
          <defs
             id="defs101">
            <path
               id="ArialMT-66"
               d="M 7.328125 0  L 7.328125 71.578125  L 34.1875 71.578125  Q 42.390625 71.578125 47.34375 69.40625  Q 52.296875 67.234375 55.09375 62.71875  Q 57.90625 58.203125 57.90625 53.265625  Q 57.90625 48.6875 55.421875 44.625  Q 52.9375 40.578125 47.90625 38.09375  Q 54.390625 36.1875 57.875 31.59375  Q 61.375 27 61.375 20.75  Q 61.375 15.71875 59.25 11.390625  Q 57.125 7.078125 54 4.734375  Q 50.875 2.390625 46.15625 1.1875  Q 41.453125 0 34.625 0  z M 16.796875 41.5  L 32.28125 41.5  Q 38.578125 41.5 41.3125 42.328125  Q 44.921875 43.40625 46.75 45.890625  Q 48.578125 48.390625 48.578125 52.15625  Q 48.578125 55.71875 46.875 58.421875  Q 45.171875 61.140625 41.984375 62.140625  Q 38.8125 63.140625 31.109375 63.140625  L 16.796875 63.140625  z M 16.796875 8.453125  L 34.625 8.453125  Q 39.203125 8.453125 41.0625 8.796875  Q 44.34375 9.375 46.53125 10.734375  Q 48.734375 12.109375 50.140625 14.71875  Q 51.5625 17.328125 51.5625 20.75  Q 51.5625 24.75 49.515625 27.703125  Q 47.46875 30.671875 43.828125 31.859375  Q 40.1875 33.0625 33.34375 33.0625  L 16.796875 33.0625  z " />
            <path
               id="ArialMT-105"
               d="M 6.640625 61.46875  L 6.640625 71.578125  L 15.4375 71.578125  L 15.4375 61.46875  z M 6.640625 0  L 6.640625 51.859375  L 15.4375 51.859375  L 15.4375 0  z " />
            <path
               id="ArialMT-97"
               d="M 40.4375 6.390625  Q 35.546875 2.25 31.03125 0.53125  Q 26.515625 -1.171875 21.34375 -1.171875  Q 12.796875 -1.171875 8.203125 3  Q 3.609375 7.171875 3.609375 13.671875  Q 3.609375 17.484375 5.34375 20.625  Q 7.078125 23.78125 9.890625 25.6875  Q 12.703125 27.59375 16.21875 28.5625  Q 18.796875 29.25 24.03125 29.890625  Q 34.671875 31.15625 39.703125 32.90625  Q 39.75 34.71875 39.75 35.203125  Q 39.75 40.578125 37.25 42.78125  Q 33.890625 45.75 27.25 45.75  Q 21.046875 45.75 18.09375 43.578125  Q 15.140625 41.40625 13.71875 35.890625  L 5.125 37.0625  Q 6.296875 42.578125 8.984375 45.96875  Q 11.671875 49.359375 16.75 51.1875  Q 21.828125 53.03125 28.515625 53.03125  Q 35.15625 53.03125 39.296875 51.46875  Q 43.453125 49.90625 45.40625 47.53125  Q 47.359375 45.171875 48.140625 41.546875  Q 48.578125 39.3125 48.578125 33.453125  L 48.578125 21.734375  Q 48.578125 9.46875 49.140625 6.21875  Q 49.703125 2.984375 51.375 0  L 42.1875 0  Q 40.828125 2.734375 40.4375 6.390625  z M 39.703125 26.03125  Q 34.90625 24.078125 25.34375 22.703125  Q 19.921875 21.921875 17.671875 20.9375  Q 15.4375 19.96875 14.203125 18.09375  Q 12.984375 16.21875 12.984375 13.921875  Q 12.984375 10.40625 15.640625 8.0625  Q 18.3125 5.71875 23.4375 5.71875  Q 28.515625 5.71875 32.46875 7.9375  Q 36.421875 10.15625 38.28125 14.015625  Q 39.703125 17 39.703125 22.796875  z " />
            <path
               id="ArialMT-115"
               d="M 3.078125 15.484375  L 11.765625 16.84375  Q 12.5 11.625 15.84375 8.84375  Q 19.1875 6.0625 25.203125 6.0625  Q 31.25 6.0625 34.171875 8.515625  Q 37.109375 10.984375 37.109375 14.3125  Q 37.109375 17.28125 34.515625 19  Q 32.71875 20.171875 25.53125 21.96875  Q 15.875 24.421875 12.140625 26.203125  Q 8.40625 27.984375 6.46875 31.125  Q 4.546875 34.28125 4.546875 38.09375  Q 4.546875 41.546875 6.125 44.5  Q 7.71875 47.46875 10.453125 49.421875  Q 12.5 50.921875 16.03125 51.96875  Q 19.578125 53.03125 23.640625 53.03125  Q 29.734375 53.03125 34.34375 51.265625  Q 38.96875 49.515625 41.15625 46.5  Q 43.359375 43.5 44.1875 38.484375  L 35.59375 37.3125  Q 35.015625 41.3125 32.203125 43.546875  Q 29.390625 45.796875 24.265625 45.796875  Q 18.21875 45.796875 15.625 43.796875  Q 13.03125 41.796875 13.03125 39.109375  Q 13.03125 37.40625 14.109375 36.03125  Q 15.1875 34.625 17.484375 33.6875  Q 18.796875 33.203125 25.25 31.453125  Q 34.578125 28.953125 38.25 27.359375  Q 41.9375 25.78125 44.03125 22.75  Q 46.140625 19.734375 46.140625 15.234375  Q 46.140625 10.84375 43.578125 6.953125  Q 41.015625 3.078125 36.171875 0.953125  Q 31.34375 -1.171875 25.25 -1.171875  Q 15.140625 -1.171875 9.84375 3.03125  Q 4.546875 7.234375 3.078125 15.484375  z " />
          </defs>
          <g
             id="g111"
             transform="translate(150.028533 276.519053)scale(0.144 -0.144)">
            <use
               id="use103"
               xlink:href="#ArialMT-66" />
            <use
               id="use105"
               xlink:href="#ArialMT-105"
               x="66.699219" />
            <use
               id="use107"
               xlink:href="#ArialMT-97"
               x="88.916016" />
            <use
               id="use109"
               xlink:href="#ArialMT-115"
               x="144.53125" />
          </g>
        </g>
      </g>
      <g
         id="matplotlib.axis_2">
        <g
           id="ytick_1">
          <g
             id="line2d_4">
            <defs
               id="defs116">
              <path
                 style="stroke:#000000;stroke-width:0.8;"
                 id="m9c51d424c4"
                 d="M 0 0  L -3.5 0  " />
            </defs>
            <g
               id="g120">
              <use
                 id="use118"
                 y="242.042553"
                 xlink:href="#m9c51d424c4"
                 x="57.6"
                 style="stroke:#000000;stroke-width:0.8;" />
            </g>
          </g>
          <g
             id="text_5">
            <!-- 0 -->
            <g
               id="g125"
               transform="translate(42.59225 247.196178)scale(0.144 -0.144)">
              <use
                 id="use123"
                 xlink:href="#ArialMT-48" />
            </g>
          </g>
        </g>
        <g
           id="ytick_2">
          <g
             id="line2d_5">
            <g
               id="g131">
              <use
                 id="use129"
                 y="201.928544"
                 xlink:href="#m9c51d424c4"
                 x="57.6"
                 style="stroke:#000000;stroke-width:0.8;" />
            </g>
          </g>
          <g
             id="text_6">
            <!-- 1 -->
            <defs
               id="defs135">
              <path
                 id="ArialMT-49"
                 d="M 37.25 0  L 28.46875 0  L 28.46875 56  Q 25.296875 52.984375 20.140625 49.953125  Q 14.984375 46.921875 10.890625 45.40625  L 10.890625 53.90625  Q 18.265625 57.375 23.78125 62.296875  Q 29.296875 67.234375 31.59375 71.875  L 37.25 71.875  z " />
            </defs>
            <g
               id="g139"
               transform="translate(42.59225 207.082169)scale(0.144 -0.144)">
              <use
                 id="use137"
                 xlink:href="#ArialMT-49" />
            </g>
          </g>
        </g>
        <g
           id="ytick_3">
          <g
             id="line2d_6">
            <g
               id="g145">
              <use
                 id="use143"
                 y="161.814535"
                 xlink:href="#m9c51d424c4"
                 x="57.6"
                 style="stroke:#000000;stroke-width:0.8;" />
            </g>
          </g>
          <g
             id="text_7">
            <!-- 2 -->
            <g
               id="g150"
               transform="translate(42.59225 166.96816)scale(0.144 -0.144)">
              <use
                 id="use148"
                 xlink:href="#ArialMT-50" />
            </g>
          </g>
        </g>
        <g
           id="ytick_4">
          <g
             id="line2d_7">
            <g
               id="g156">
              <use
                 id="use154"
                 y="121.700526"
                 xlink:href="#m9c51d424c4"
                 x="57.6"
                 style="stroke:#000000;stroke-width:0.8;" />
            </g>
          </g>
          <g
             id="text_8">
            <!-- 3 -->
            <defs
               id="defs160">
              <path
                 id="ArialMT-51"
                 d="M 4.203125 18.890625  L 12.984375 20.0625  Q 14.5 12.59375 18.140625 9.296875  Q 21.78125 6 27 6  Q 33.203125 6 37.46875 10.296875  Q 41.75 14.59375 41.75 20.953125  Q 41.75 27 37.796875 30.921875  Q 33.84375 34.859375 27.734375 34.859375  Q 25.25 34.859375 21.53125 33.890625  L 22.515625 41.609375  Q 23.390625 41.5 23.921875 41.5  Q 29.546875 41.5 34.03125 44.421875  Q 38.53125 47.359375 38.53125 53.46875  Q 38.53125 58.296875 35.25 61.46875  Q 31.984375 64.65625 26.8125 64.65625  Q 21.6875 64.65625 18.265625 61.421875  Q 14.84375 58.203125 13.875 51.765625  L 5.078125 53.328125  Q 6.6875 62.15625 12.390625 67.015625  Q 18.109375 71.875 26.609375 71.875  Q 32.46875 71.875 37.390625 69.359375  Q 42.328125 66.84375 44.9375 62.5  Q 47.5625 58.15625 47.5625 53.265625  Q 47.5625 48.640625 45.0625 44.828125  Q 42.578125 41.015625 37.703125 38.765625  Q 44.046875 37.3125 47.5625 32.6875  Q 51.078125 28.078125 51.078125 21.140625  Q 51.078125 11.765625 44.234375 5.25  Q 37.40625 -1.265625 26.953125 -1.265625  Q 17.53125 -1.265625 11.296875 4.34375  Q 5.078125 9.96875 4.203125 18.890625  z " />
            </defs>
            <g
               id="g164"
               transform="translate(42.59225 126.854151)scale(0.144 -0.144)">
              <use
                 id="use162"
                 xlink:href="#ArialMT-51" />
            </g>
          </g>
        </g>
        <g
           id="ytick_5">
          <g
             id="line2d_8">
            <g
               id="g170">
              <use
                 id="use168"
                 y="81.586516"
                 xlink:href="#m9c51d424c4"
                 x="57.6"
                 style="stroke:#000000;stroke-width:0.8;" />
            </g>
          </g>
          <g
             id="text_9">
            <!-- 4 -->
            <g
               id="g175"
               transform="translate(42.59225 86.740141)scale(0.144 -0.144)">
              <use
                 id="use173"
                 xlink:href="#ArialMT-52" />
            </g>
          </g>
        </g>
        <g
           id="ytick_6">
          <g
             id="line2d_9">
            <g
               id="g181">
              <use
                 id="use179"
                 y="41.472507"
                 xlink:href="#m9c51d424c4"
                 x="57.6"
                 style="stroke:#000000;stroke-width:0.8;" />
            </g>
          </g>
          <g
             id="text_10">
            <!-- 5 -->
            <defs
               id="defs185">
              <path
                 id="ArialMT-53"
                 d="M 4.15625 18.75  L 13.375 19.53125  Q 14.40625 12.796875 18.140625 9.390625  Q 21.875 6 27.15625 6  Q 33.5 6 37.890625 10.78125  Q 42.28125 15.578125 42.28125 23.484375  Q 42.28125 31 38.0625 35.34375  Q 33.84375 39.703125 27 39.703125  Q 22.75 39.703125 19.328125 37.765625  Q 15.921875 35.84375 13.96875 32.765625  L 5.71875 33.84375  L 12.640625 70.609375  L 48.25 70.609375  L 48.25 62.203125  L 19.671875 62.203125  L 15.828125 42.96875  Q 22.265625 47.46875 29.34375 47.46875  Q 38.71875 47.46875 45.15625 40.96875  Q 51.609375 34.46875 51.609375 24.265625  Q 51.609375 14.546875 45.953125 7.46875  Q 39.0625 -1.21875 27.15625 -1.21875  Q 17.390625 -1.21875 11.203125 4.25  Q 5.03125 9.71875 4.15625 18.75  z " />
            </defs>
            <g
               id="g189"
               transform="translate(42.59225 46.626132)scale(0.144 -0.144)">
              <use
                 id="use187"
                 xlink:href="#ArialMT-53" />
            </g>
          </g>
        </g>
        <g
           id="text_11">
          <!-- Density -->
          <defs
             id="defs198">
            <path
               id="ArialMT-68"
               d="M 7.71875 0  L 7.71875 71.578125  L 32.375 71.578125  Q 40.71875 71.578125 45.125 70.5625  Q 51.265625 69.140625 55.609375 65.4375  Q 61.28125 60.640625 64.078125 53.1875  Q 66.890625 45.75 66.890625 36.1875  Q 66.890625 28.03125 64.984375 21.734375  Q 63.09375 15.4375 60.109375 11.296875  Q 57.125 7.171875 53.578125 4.796875  Q 50.046875 2.4375 45.046875 1.21875  Q 40.046875 0 33.546875 0  z M 17.1875 8.453125  L 32.46875 8.453125  Q 39.546875 8.453125 43.578125 9.765625  Q 47.609375 11.078125 50 13.484375  Q 53.375 16.84375 55.25 22.53125  Q 57.125 28.21875 57.125 36.328125  Q 57.125 47.5625 53.4375 53.59375  Q 49.75 59.625 44.484375 61.671875  Q 40.671875 63.140625 32.234375 63.140625  L 17.1875 63.140625  z " />
            <path
               id="ArialMT-101"
               d="M 42.09375 16.703125  L 51.171875 15.578125  Q 49.03125 7.625 43.21875 3.21875  Q 37.40625 -1.171875 28.375 -1.171875  Q 17 -1.171875 10.328125 5.828125  Q 3.65625 12.84375 3.65625 25.484375  Q 3.65625 38.578125 10.390625 45.796875  Q 17.140625 53.03125 27.875 53.03125  Q 38.28125 53.03125 44.875 45.953125  Q 51.46875 38.875 51.46875 26.03125  Q 51.46875 25.25 51.421875 23.6875  L 12.75 23.6875  Q 13.234375 15.140625 17.578125 10.59375  Q 21.921875 6.0625 28.421875 6.0625  Q 33.25 6.0625 36.671875 8.59375  Q 40.09375 11.140625 42.09375 16.703125  z M 13.234375 30.90625  L 42.1875 30.90625  Q 41.609375 37.453125 38.875 40.71875  Q 34.671875 45.796875 27.984375 45.796875  Q 21.921875 45.796875 17.796875 41.75  Q 13.671875 37.703125 13.234375 30.90625  z " />
            <path
               id="ArialMT-110"
               d="M 6.59375 0  L 6.59375 51.859375  L 14.5 51.859375  L 14.5 44.484375  Q 20.21875 53.03125 31 53.03125  Q 35.6875 53.03125 39.625 51.34375  Q 43.5625 49.65625 45.515625 46.921875  Q 47.46875 44.1875 48.25 40.4375  Q 48.734375 37.984375 48.734375 31.890625  L 48.734375 0  L 39.9375 0  L 39.9375 31.546875  Q 39.9375 36.921875 38.90625 39.578125  Q 37.890625 42.234375 35.28125 43.8125  Q 32.671875 45.40625 29.15625 45.40625  Q 23.53125 45.40625 19.453125 41.84375  Q 15.375 38.28125 15.375 28.328125  L 15.375 0  z " />
            <path
               id="ArialMT-116"
               d="M 25.78125 7.859375  L 27.046875 0.09375  Q 23.34375 -0.6875 20.40625 -0.6875  Q 15.625 -0.6875 12.984375 0.828125  Q 10.359375 2.34375 9.28125 4.8125  Q 8.203125 7.28125 8.203125 15.1875  L 8.203125 45.015625  L 1.765625 45.015625  L 1.765625 51.859375  L 8.203125 51.859375  L 8.203125 64.703125  L 16.9375 69.96875  L 16.9375 51.859375  L 25.78125 51.859375  L 25.78125 45.015625  L 16.9375 45.015625  L 16.9375 14.703125  Q 16.9375 10.9375 17.40625 9.859375  Q 17.875 8.796875 18.921875 8.15625  Q 19.96875 7.515625 21.921875 7.515625  Q 23.390625 7.515625 25.78125 7.859375  z " />
            <path
               id="ArialMT-121"
               d="M 6.203125 -19.96875  L 5.21875 -11.71875  Q 8.109375 -12.5 10.25 -12.5  Q 13.1875 -12.5 14.9375 -11.515625  Q 16.703125 -10.546875 17.828125 -8.796875  Q 18.65625 -7.46875 20.515625 -2.25  Q 20.75 -1.515625 21.296875 -0.09375  L 1.609375 51.859375  L 11.078125 51.859375  L 21.875 21.828125  Q 23.96875 16.109375 25.640625 9.8125  Q 27.15625 15.875 29.25 21.625  L 40.328125 51.859375  L 49.125 51.859375  L 29.390625 -0.875  Q 26.21875 -9.421875 24.46875 -12.640625  Q 22.125 -17 19.09375 -19.015625  Q 16.0625 -21.046875 11.859375 -21.046875  Q 9.328125 -21.046875 6.203125 -19.96875  z " />
          </defs>
          <g
             id="g214"
             transform="translate(35.5615 159.428777)rotate(-90)scale(0.144 -0.144)">
            <use
               id="use200"
               xlink:href="#ArialMT-68" />
            <use
               id="use202"
               xlink:href="#ArialMT-101"
               x="72.216797" />
            <use
               id="use204"
               xlink:href="#ArialMT-110"
               x="127.832031" />
            <use
               id="use206"
               xlink:href="#ArialMT-115"
               x="183.447266" />
            <use
               id="use208"
               xlink:href="#ArialMT-105"
               x="233.447266" />
            <use
               id="use210"
               xlink:href="#ArialMT-116"
               x="255.664062" />
            <use
               id="use212"
               xlink:href="#ArialMT-121"
               x="283.447266" />
          </g>
        </g>
      </g>
      <g
         id="line2d_10">
        <path
           id="path218"
           style="fill:none;stroke:#ff0000;stroke-linecap:round;stroke-width:1.5;"
           d="M 67.275889 241.92118  L 69.230614 241.816458  L 71.18534 241.635291  L 73.140065 241.332984  L 75.09479 240.846385  L 77.049515 240.090828  L 79.00424 238.959046  L 80.958965 237.32344  L 82.91369 235.042913  L 84.868415 231.974972  L 86.82314 227.992776  L 88.777866 223.00552  L 90.732591 216.979155  L 92.687316 209.953437  L 94.642041 202.051007  L 96.596766 193.474857  L 98.551491 184.492287  L 100.506216 175.405935  L 102.460941 166.5153  L 104.415667 158.074735  L 106.370392 150.255558  L 108.325117 143.120208  L 110.279842 136.614973  L 112.234567 130.58471  L 114.189292 124.808674  L 116.144017 119.051742  L 118.098742 113.121252  L 120.053467 106.917421  L 122.008193 100.465796  L 123.962918 93.923617  L 125.917643 87.55763  L 127.872368 81.697415  L 129.827093 76.673965  L 131.781818 72.756487  L 133.736543 70.100461  L 135.691268 68.717049  L 137.645994 68.468843  L 139.600719 69.091281  L 141.555444 70.234113  L 143.510169 71.514142  L 145.464894 72.569491  L 147.419619 73.106677  L 149.374344 72.934269  L 151.329069 71.980016  L 153.283794 70.291417  L 155.23852 68.022136  L 157.193245 65.408118  L 159.14797 62.737767  L 161.102695 60.320257  L 163.05742 58.455286  L 165.012145 57.406778  L 166.96687 57.382303  L 168.921595 58.519434  L 170.876321 60.879758  L 172.831046 64.450594  L 174.785771 69.153714  L 176.740496 74.859427  L 178.695221 81.403741  L 180.649946 88.605997  L 182.604671 96.284655  L 184.559396 104.269675  L 186.514121 112.410853  L 188.468847 120.58241  L 190.423572 128.684634  L 192.378297 136.643526  L 194.333022 144.409167  L 196.287747 151.953125  L 198.242472 159.264845  L 200.197197 166.346817  L 202.151922 173.208437  L 204.106648 179.858891  L 206.061373 186.299898  L 208.016098 192.519598  L 209.970823 198.488994  L 211.925548 204.162119  L 213.880273 209.48036  L 215.834998 214.380444  L 217.789723 218.804609  L 219.744448 222.710855  L 221.699174 226.080973  L 223.653899 228.924561  L 225.608624 231.278121  L 227.563349 233.199554  L 229.518074 234.75942  L 231.472799 236.031033  L 233.427524 237.081527  L 235.382249 237.965606  L 237.336974 238.722785  L 239.2917 239.378013  L 241.246425 239.944759  L 243.20115 240.429283  L 245.155875 240.834818  L 247.1106 241.16475  L 249.065325 241.424392  L 251.02005 241.621412  L 252.974775 241.765291  L 254.929501 241.866301  L 256.884226 241.934435  L 258.838951 241.97858  L 260.793676 242.006053  "
           clip-path="url(#pda6c023946)" />
      </g>
      <g
         id="patch_12">
        <path
           id="path221"
           style="fill:none;stroke:#000000;stroke-linecap:square;stroke-linejoin:miter;stroke-width:0.8;"
           d="M 57.6 242.042553  L 57.6 28.8  " />
      </g>
      <g
         id="patch_13">
        <path
           id="path224"
           style="fill:none;stroke:#000000;stroke-linecap:square;stroke-linejoin:miter;stroke-width:0.8;"
           d="M 270.469565 242.042553  L 270.469565 28.8  " />
      </g>
      <g
         id="patch_14">
        <path
           id="path227"
           style="fill:none;stroke:#000000;stroke-linecap:square;stroke-linejoin:miter;stroke-width:0.8;"
           d="M 57.6 242.042553  L 270.469565 242.042553  " />
      </g>
      <g
         id="patch_15">
        <path
           id="path230"
           style="fill:none;stroke:#000000;stroke-linecap:square;stroke-linejoin:miter;stroke-width:0.8;"
           d="M 57.6 28.8  L 270.469565 28.8  " />
      </g>
      <g
         id="text_12">
        <!-- MAP = 0.1719 -->
        <defs
           id="defs240">
          <path
             id="ArialMT-77"
             d="M 7.421875 0  L 7.421875 71.578125  L 21.6875 71.578125  L 38.625 20.90625  Q 40.96875 13.8125 42.046875 10.296875  Q 43.265625 14.203125 45.84375 21.78125  L 62.984375 71.578125  L 75.734375 71.578125  L 75.734375 0  L 66.609375 0  L 66.609375 59.90625  L 45.796875 0  L 37.25 0  L 16.546875 60.9375  L 16.546875 0  z " />
          <path
             id="ArialMT-65"
             d="M -0.140625 0  L 27.34375 71.578125  L 37.546875 71.578125  L 66.84375 0  L 56.0625 0  L 47.703125 21.6875  L 17.78125 21.6875  L 9.90625 0  z M 20.515625 29.390625  L 44.78125 29.390625  L 37.3125 49.21875  Q 33.890625 58.25 32.234375 64.0625  Q 30.859375 57.171875 28.375 50.390625  z " />
          <path
             id="ArialMT-80"
             d="M 7.71875 0  L 7.71875 71.578125  L 34.71875 71.578125  Q 41.84375 71.578125 45.609375 70.90625  Q 50.875 70.015625 54.4375 67.546875  Q 58.015625 65.09375 60.1875 60.640625  Q 62.359375 56.203125 62.359375 50.875  Q 62.359375 41.75 56.546875 35.421875  Q 50.734375 29.109375 35.546875 29.109375  L 17.1875 29.109375  L 17.1875 0  z M 17.1875 37.546875  L 35.6875 37.546875  Q 44.875 37.546875 48.734375 40.96875  Q 52.59375 44.390625 52.59375 50.59375  Q 52.59375 55.078125 50.3125 58.265625  Q 48.046875 61.46875 44.34375 62.5  Q 41.9375 63.140625 35.5 63.140625  L 17.1875 63.140625  z " />
          <path
             id="ArialMT-32" />
          <path
             id="ArialMT-61"
             d="M 52.828125 42.09375  L 5.5625 42.09375  L 5.5625 50.296875  L 52.828125 50.296875  z M 52.828125 20.359375  L 5.5625 20.359375  L 5.5625 28.5625  L 52.828125 28.5625  z " />
          <path
             id="ArialMT-55"
             d="M 4.734375 62.203125  L 4.734375 70.65625  L 51.078125 70.65625  L 51.078125 63.8125  Q 44.234375 56.546875 37.515625 44.484375  Q 30.8125 32.421875 27.15625 19.671875  Q 24.515625 10.6875 23.78125 0  L 14.75 0  Q 14.890625 8.453125 18.0625 20.40625  Q 21.234375 32.375 27.171875 43.484375  Q 33.109375 54.59375 39.796875 62.203125  z " />
          <path
             id="ArialMT-57"
             d="M 5.46875 16.546875  L 13.921875 17.328125  Q 14.984375 11.375 18.015625 8.6875  Q 21.046875 6 25.78125 6  Q 29.828125 6 32.875 7.859375  Q 35.9375 9.71875 37.890625 12.8125  Q 39.84375 15.921875 41.15625 21.1875  Q 42.484375 26.46875 42.484375 31.9375  Q 42.484375 32.515625 42.4375 33.6875  Q 39.796875 29.5 35.234375 26.875  Q 30.671875 24.265625 25.34375 24.265625  Q 16.453125 24.265625 10.296875 30.703125  Q 4.15625 37.15625 4.15625 47.703125  Q 4.15625 58.59375 10.578125 65.234375  Q 17 71.875 26.65625 71.875  Q 33.640625 71.875 39.421875 68.109375  Q 45.21875 64.359375 48.21875 57.390625  Q 51.21875 50.4375 51.21875 37.25  Q 51.21875 23.53125 48.234375 15.40625  Q 45.265625 7.28125 39.375 3.03125  Q 33.5 -1.21875 25.59375 -1.21875  Q 17.1875 -1.21875 11.859375 3.4375  Q 6.546875 8.109375 5.46875 16.546875  z M 41.453125 48.140625  Q 41.453125 55.71875 37.421875 60.15625  Q 33.40625 64.59375 27.734375 64.59375  Q 21.875 64.59375 17.53125 59.8125  Q 13.1875 55.03125 13.1875 47.40625  Q 13.1875 40.578125 17.3125 36.296875  Q 21.4375 32.03125 27.484375 32.03125  Q 33.59375 32.03125 37.515625 36.296875  Q 41.453125 40.578125 41.453125 48.140625  z " />
        </defs>
        <g
           id="g266"
           transform="translate(118.332783 22.8)scale(0.144 -0.144)">
          <use
             id="use242"
             xlink:href="#ArialMT-77" />
          <use
             id="use244"
             xlink:href="#ArialMT-65"
             x="83.300781" />
          <use
             id="use246"
             xlink:href="#ArialMT-80"
             x="150" />
          <use
             id="use248"
             xlink:href="#ArialMT-32"
             x="214.949219" />
          <use
             id="use250"
             xlink:href="#ArialMT-61"
             x="242.732422" />
          <use
             id="use252"
             xlink:href="#ArialMT-32"
             x="301.130859" />
          <use
             id="use254"
             xlink:href="#ArialMT-48"
             x="328.914062" />
          <use
             id="use256"
             xlink:href="#ArialMT-46"
             x="384.529297" />
          <use
             id="use258"
             xlink:href="#ArialMT-49"
             x="412.3125" />
          <use
             id="use260"
             xlink:href="#ArialMT-55"
             x="467.927734" />
          <use
             id="use262"
             xlink:href="#ArialMT-49"
             x="523.542969" />
          <use
             id="use264"
             xlink:href="#ArialMT-57"
             x="579.158203" />
        </g>
      </g>
    </g>
    <g
       id="axes_2">
      <g
         id="patch_16">
        <path
           id="path270"
           style="fill:#ffffff;"
           d="M 334.330435 242.042553  L 547.2 242.042553  L 547.2 28.8  L 334.330435 28.8  z " />
      </g>
      <g
         id="patch_17">
        <path
           id="path273"
           style="fill:#ff0000;opacity:0.4;stroke:#ffffff;stroke-linejoin:miter;"
           d="M 371.950526 242.042553  L 385.713464 242.042553  L 385.713464 236.381979  L 371.950526 236.381979  z "
           clip-path="url(#pa7eb1e082c)" />
      </g>
      <g
         id="patch_18">
        <path
           id="path276"
           style="fill:#ff0000;opacity:0.4;stroke:#ffffff;stroke-linejoin:miter;"
           d="M 385.713464 242.042553  L 399.476403 242.042553  L 399.476403 196.757957  L 385.713464 196.757957  z "
           clip-path="url(#pa7eb1e082c)" />
      </g>
      <g
         id="patch_19">
        <path
           id="path279"
           style="fill:#ff0000;opacity:0.4;stroke:#ffffff;stroke-linejoin:miter;"
           d="M 399.476403 242.042553  L 413.239341 242.042553  L 413.239341 174.115659  L 399.476403 174.115659  z "
           clip-path="url(#pa7eb1e082c)" />
      </g>
      <g
         id="patch_20">
        <path
           id="path282"
           style="fill:#ff0000;opacity:0.4;stroke:#ffffff;stroke-linejoin:miter;"
           d="M 413.239341 242.042553  L 427.002279 242.042553  L 427.002279 49.583019  L 413.239341 49.583019  z "
           clip-path="url(#pa7eb1e082c)" />
      </g>
      <g
         id="patch_21">
        <path
           id="path285"
           style="fill:#ff0000;opacity:0.4;stroke:#ffffff;stroke-linejoin:miter;"
           d="M 427.002279 242.042553  L 440.765217 242.042553  L 440.765217 55.243593  L 427.002279 55.243593  z "
           clip-path="url(#pa7eb1e082c)" />
      </g>
      <g
         id="patch_22">
        <path
           id="path288"
           style="fill:#ff0000;opacity:0.4;stroke:#ffffff;stroke-linejoin:miter;"
           d="M 440.765217 242.042553  L 454.528156 242.042553  L 454.528156 49.583019  L 440.765217 49.583019  z "
           clip-path="url(#pa7eb1e082c)" />
      </g>
      <g
         id="patch_23">
        <path
           id="path291"
           style="fill:#ff0000;opacity:0.4;stroke:#ffffff;stroke-linejoin:miter;"
           d="M 454.528156 242.042553  L 468.291094 242.042553  L 468.291094 55.243593  L 454.528156 55.243593  z "
           clip-path="url(#pa7eb1e082c)" />
      </g>
      <g
         id="patch_24">
        <path
           id="path294"
           style="fill:#ff0000;opacity:0.4;stroke:#ffffff;stroke-linejoin:miter;"
           d="M 468.291094 242.042553  L 482.054032 242.042553  L 482.054032 100.52819  L 468.291094 100.52819  z "
           clip-path="url(#pa7eb1e082c)" />
      </g>
      <g
         id="patch_25">
        <path
           id="path297"
           style="fill:#ff0000;opacity:0.4;stroke:#ffffff;stroke-linejoin:miter;"
           d="M 482.054032 242.042553  L 495.816971 242.042553  L 495.816971 157.133935  L 482.054032 157.133935  z "
           clip-path="url(#pa7eb1e082c)" />
      </g>
      <g
         id="patch_26">
        <path
           id="path300"
           style="fill:#ff0000;opacity:0.4;stroke:#ffffff;stroke-linejoin:miter;"
           d="M 495.816971 242.042553  L 509.579909 242.042553  L 509.579909 213.73968  L 495.816971 213.73968  z "
           clip-path="url(#pa7eb1e082c)" />
      </g>
      <g
         id="matplotlib.axis_3">
        <g
           id="xtick_4">
          <g
             id="line2d_11">
            <g
               id="g305">
              <use
                 id="use303"
                 y="242.042553"
                 xlink:href="#m85cca8d064"
                 x="374.190286"
                 style="stroke:#000000;stroke-width:0.8;" />
            </g>
          </g>
          <g
             id="text_13">
            <!-- 0.2 -->
            <g
               id="g314"
               transform="translate(364.182286 259.349803)scale(0.144 -0.144)">
              <use
                 id="use308"
                 xlink:href="#ArialMT-48" />
              <use
                 id="use310"
                 xlink:href="#ArialMT-46"
                 x="55.615234" />
              <use
                 id="use312"
                 xlink:href="#ArialMT-50"
                 x="83.398438" />
            </g>
          </g>
        </g>
        <g
           id="xtick_5">
          <g
             id="line2d_12">
            <g
               id="g320">
              <use
                 id="use318"
                 y="242.042553"
                 xlink:href="#m85cca8d064"
                 x="444.109366"
                 style="stroke:#000000;stroke-width:0.8;" />
            </g>
          </g>
          <g
             id="text_14">
            <!-- 0.3 -->
            <g
               id="g329"
               transform="translate(434.101366 259.349803)scale(0.144 -0.144)">
              <use
                 id="use323"
                 xlink:href="#ArialMT-48" />
              <use
                 id="use325"
                 xlink:href="#ArialMT-46"
                 x="55.615234" />
              <use
                 id="use327"
                 xlink:href="#ArialMT-51"
                 x="83.398438" />
            </g>
          </g>
        </g>
        <g
           id="xtick_6">
          <g
             id="line2d_13">
            <g
               id="g335">
              <use
                 id="use333"
                 y="242.042553"
                 xlink:href="#m85cca8d064"
                 x="514.028445"
                 style="stroke:#000000;stroke-width:0.8;" />
            </g>
          </g>
          <g
             id="text_15">
            <!-- 0.4 -->
            <g
               id="g344"
               transform="translate(504.020445 259.349803)scale(0.144 -0.144)">
              <use
                 id="use338"
                 xlink:href="#ArialMT-48" />
              <use
                 id="use340"
                 xlink:href="#ArialMT-46"
                 x="55.615234" />
              <use
                 id="use342"
                 xlink:href="#ArialMT-52"
                 x="83.398438" />
            </g>
          </g>
        </g>
        <g
           id="text_16">
          <!-- Speed -->
          <defs
             id="defs351">
            <path
               id="ArialMT-83"
               d="M 4.5 23  L 13.421875 23.78125  Q 14.0625 18.40625 16.375 14.96875  Q 18.703125 11.53125 23.578125 9.40625  Q 28.46875 7.28125 34.578125 7.28125  Q 39.984375 7.28125 44.140625 8.890625  Q 48.296875 10.5 50.3125 13.296875  Q 52.34375 16.109375 52.34375 19.4375  Q 52.34375 22.796875 50.390625 25.3125  Q 48.4375 27.828125 43.953125 29.546875  Q 41.0625 30.671875 31.203125 33.03125  Q 21.34375 35.40625 17.390625 37.5  Q 12.25 40.1875 9.734375 44.15625  Q 7.234375 48.140625 7.234375 53.078125  Q 7.234375 58.5 10.296875 63.203125  Q 13.375 67.921875 19.28125 70.359375  Q 25.203125 72.796875 32.421875 72.796875  Q 40.375 72.796875 46.453125 70.234375  Q 52.546875 67.671875 55.8125 62.6875  Q 59.078125 57.71875 59.328125 51.421875  L 50.25 50.734375  Q 49.515625 57.515625 45.28125 60.984375  Q 41.0625 64.453125 32.8125 64.453125  Q 24.21875 64.453125 20.28125 61.296875  Q 16.359375 58.15625 16.359375 53.71875  Q 16.359375 49.859375 19.140625 47.359375  Q 21.875 44.875 33.421875 42.265625  Q 44.96875 39.65625 49.265625 37.703125  Q 55.515625 34.8125 58.484375 30.390625  Q 61.46875 25.984375 61.46875 20.21875  Q 61.46875 14.5 58.203125 9.4375  Q 54.9375 4.390625 48.796875 1.578125  Q 42.671875 -1.21875 35.015625 -1.21875  Q 25.296875 -1.21875 18.71875 1.609375  Q 12.15625 4.4375 8.421875 10.125  Q 4.6875 15.828125 4.5 23  z " />
            <path
               id="ArialMT-112"
               d="M 6.59375 -19.875  L 6.59375 51.859375  L 14.59375 51.859375  L 14.59375 45.125  Q 17.4375 49.078125 21 51.046875  Q 24.5625 53.03125 29.640625 53.03125  Q 36.28125 53.03125 41.359375 49.609375  Q 46.4375 46.1875 49.015625 39.953125  Q 51.609375 33.734375 51.609375 26.3125  Q 51.609375 18.359375 48.75 11.984375  Q 45.90625 5.609375 40.453125 2.21875  Q 35.015625 -1.171875 29 -1.171875  Q 24.609375 -1.171875 21.109375 0.6875  Q 17.625 2.546875 15.375 5.375  L 15.375 -19.875  z M 14.546875 25.640625  Q 14.546875 15.625 18.59375 10.84375  Q 22.65625 6.0625 28.421875 6.0625  Q 34.28125 6.0625 38.453125 11.015625  Q 42.625 15.96875 42.625 26.375  Q 42.625 36.28125 38.546875 41.203125  Q 34.46875 46.140625 28.8125 46.140625  Q 23.1875 46.140625 18.859375 40.890625  Q 14.546875 35.640625 14.546875 25.640625  z " />
            <path
               id="ArialMT-100"
               d="M 40.234375 0  L 40.234375 6.546875  Q 35.296875 -1.171875 25.734375 -1.171875  Q 19.53125 -1.171875 14.328125 2.25  Q 9.125 5.671875 6.265625 11.796875  Q 3.421875 17.921875 3.421875 25.875  Q 3.421875 33.640625 6 39.96875  Q 8.59375 46.296875 13.765625 49.65625  Q 18.953125 53.03125 25.34375 53.03125  Q 30.03125 53.03125 33.6875 51.046875  Q 37.359375 49.078125 39.65625 45.90625  L 39.65625 71.578125  L 48.390625 71.578125  L 48.390625 0  z M 12.453125 25.875  Q 12.453125 15.921875 16.640625 10.984375  Q 20.84375 6.0625 26.5625 6.0625  Q 32.328125 6.0625 36.34375 10.765625  Q 40.375 15.484375 40.375 25.140625  Q 40.375 35.796875 36.265625 40.765625  Q 32.171875 45.75 26.171875 45.75  Q 20.3125 45.75 16.375 40.96875  Q 12.453125 36.1875 12.453125 25.875  z " />
          </defs>
          <g
             id="g363"
             transform="translate(419.947092 276.694553)scale(0.144 -0.144)">
            <use
               id="use353"
               xlink:href="#ArialMT-83" />
            <use
               id="use355"
               xlink:href="#ArialMT-112"
               x="66.699219" />
            <use
               id="use357"
               xlink:href="#ArialMT-101"
               x="122.314453" />
            <use
               id="use359"
               xlink:href="#ArialMT-101"
               x="177.929688" />
            <use
               id="use361"
               xlink:href="#ArialMT-100"
               x="233.544922" />
          </g>
        </g>
      </g>
      <g
         id="matplotlib.axis_4">
        <g
           id="ytick_7">
          <g
             id="line2d_14">
            <g
               id="g369">
              <use
                 id="use367"
                 y="242.042553"
                 xlink:href="#m9c51d424c4"
                 x="334.330435"
                 style="stroke:#000000;stroke-width:0.8;" />
            </g>
          </g>
          <g
             id="text_17">
            <!-- 0 -->
            <g
               id="g374"
               transform="translate(319.322685 247.196178)scale(0.144 -0.144)">
              <use
                 id="use372"
                 xlink:href="#ArialMT-48" />
            </g>
          </g>
        </g>
        <g
           id="ytick_8">
          <g
             id="line2d_15">
            <g
               id="g380">
              <use
                 id="use378"
                 y="197.473238"
                 xlink:href="#m9c51d424c4"
                 x="334.330435"
                 style="stroke:#000000;stroke-width:0.8;" />
            </g>
          </g>
          <g
             id="text_18">
            <!-- 2 -->
            <g
               id="g385"
               transform="translate(319.322685 202.626863)scale(0.144 -0.144)">
              <use
                 id="use383"
                 xlink:href="#ArialMT-50" />
            </g>
          </g>
        </g>
        <g
           id="ytick_9">
          <g
             id="line2d_16">
            <g
               id="g391">
              <use
                 id="use389"
                 y="152.903922"
                 xlink:href="#m9c51d424c4"
                 x="334.330435"
                 style="stroke:#000000;stroke-width:0.8;" />
            </g>
          </g>
          <g
             id="text_19">
            <!-- 4 -->
            <g
               id="g396"
               transform="translate(319.322685 158.057547)scale(0.144 -0.144)">
              <use
                 id="use394"
                 xlink:href="#ArialMT-52" />
            </g>
          </g>
        </g>
        <g
           id="ytick_10">
          <g
             id="line2d_17">
            <g
               id="g402">
              <use
                 id="use400"
                 y="108.334607"
                 xlink:href="#m9c51d424c4"
                 x="334.330435"
                 style="stroke:#000000;stroke-width:0.8;" />
            </g>
          </g>
          <g
             id="text_20">
            <!-- 6 -->
            <defs
               id="defs406">
              <path
                 id="ArialMT-54"
                 d="M 49.75 54.046875  L 41.015625 53.375  Q 39.84375 58.546875 37.703125 60.890625  Q 34.125 64.65625 28.90625 64.65625  Q 24.703125 64.65625 21.53125 62.3125  Q 17.390625 59.28125 14.984375 53.46875  Q 12.59375 47.65625 12.5 36.921875  Q 15.671875 41.75 20.265625 44.09375  Q 24.859375 46.4375 29.890625 46.4375  Q 38.671875 46.4375 44.84375 39.96875  Q 51.03125 33.5 51.03125 23.25  Q 51.03125 16.5 48.125 10.71875  Q 45.21875 4.9375 40.140625 1.859375  Q 35.0625 -1.21875 28.609375 -1.21875  Q 17.625 -1.21875 10.6875 6.859375  Q 3.765625 14.9375 3.765625 33.5  Q 3.765625 54.25 11.421875 63.671875  Q 18.109375 71.875 29.4375 71.875  Q 37.890625 71.875 43.28125 67.140625  Q 48.6875 62.40625 49.75 54.046875  z M 13.875 23.1875  Q 13.875 18.65625 15.796875 14.5  Q 17.71875 10.359375 21.1875 8.171875  Q 24.65625 6 28.46875 6  Q 34.03125 6 38.03125 10.484375  Q 42.046875 14.984375 42.046875 22.703125  Q 42.046875 30.125 38.078125 34.390625  Q 34.125 38.671875 28.125 38.671875  Q 22.171875 38.671875 18.015625 34.390625  Q 13.875 30.125 13.875 23.1875  z " />
            </defs>
            <g
               id="g410"
               transform="translate(319.322685 113.488232)scale(0.144 -0.144)">
              <use
                 id="use408"
                 xlink:href="#ArialMT-54" />
            </g>
          </g>
        </g>
        <g
           id="ytick_11">
          <g
             id="line2d_18">
            <g
               id="g416">
              <use
                 id="use414"
                 y="63.765291"
                 xlink:href="#m9c51d424c4"
                 x="334.330435"
                 style="stroke:#000000;stroke-width:0.8;" />
            </g>
          </g>
          <g
             id="text_21">
            <!-- 8 -->
            <defs
               id="defs420">
              <path
                 id="ArialMT-56"
                 d="M 17.671875 38.8125  Q 12.203125 40.828125 9.5625 44.53125  Q 6.9375 48.25 6.9375 53.421875  Q 6.9375 61.234375 12.546875 66.546875  Q 18.171875 71.875 27.484375 71.875  Q 36.859375 71.875 42.578125 66.421875  Q 48.296875 60.984375 48.296875 53.171875  Q 48.296875 48.1875 45.671875 44.5  Q 43.0625 40.828125 37.75 38.8125  Q 44.34375 36.671875 47.78125 31.875  Q 51.21875 27.09375 51.21875 20.453125  Q 51.21875 11.28125 44.71875 5.03125  Q 38.234375 -1.21875 27.640625 -1.21875  Q 17.046875 -1.21875 10.546875 5.046875  Q 4.046875 11.328125 4.046875 20.703125  Q 4.046875 27.6875 7.59375 32.390625  Q 11.140625 37.109375 17.671875 38.8125  z M 15.921875 53.71875  Q 15.921875 48.640625 19.1875 45.40625  Q 22.46875 42.1875 27.6875 42.1875  Q 32.765625 42.1875 36.015625 45.375  Q 39.265625 48.578125 39.265625 53.21875  Q 39.265625 58.0625 35.90625 61.359375  Q 32.5625 64.65625 27.59375 64.65625  Q 22.5625 64.65625 19.234375 61.421875  Q 15.921875 58.203125 15.921875 53.71875  z M 13.09375 20.65625  Q 13.09375 16.890625 14.875 13.375  Q 16.65625 9.859375 20.171875 7.921875  Q 23.6875 6 27.734375 6  Q 34.03125 6 38.125 10.046875  Q 42.234375 14.109375 42.234375 20.359375  Q 42.234375 26.703125 38.015625 30.859375  Q 33.796875 35.015625 27.4375 35.015625  Q 21.234375 35.015625 17.15625 30.90625  Q 13.09375 26.8125 13.09375 20.65625  z " />
            </defs>
            <g
               id="g424"
               transform="translate(319.322685 68.918916)scale(0.144 -0.144)">
              <use
                 id="use422"
                 xlink:href="#ArialMT-56" />
            </g>
          </g>
        </g>
      </g>
      <g
         id="line2d_19">
        <path
           id="path429"
           style="fill:none;stroke:#ff0000;stroke-linecap:round;stroke-width:1.5;"
           d="M 344.006324 242.00464  L 345.961049 241.973077  L 347.915774 241.920627  L 349.870499 241.837584  L 351.825225 241.712353  L 353.77995 241.532499  L 355.734675 241.286459  L 357.6894 240.965591  L 359.644125 240.565897  L 361.59885 240.08847  L 363.553575 239.537751  L 365.5083 238.917155  L 367.463026 238.222502  L 369.417751 237.434796  L 371.372476 236.514786  L 373.327201 235.401883  L 375.281926 234.019194  L 377.236651 232.284631  L 379.191376 230.12589  L 381.146101 227.495273  L 383.100826 224.379721  L 385.055552 220.802362  L 387.010277 216.814175  L 388.965002 212.47727  L 390.919727 207.843741  L 392.874452 202.935338  L 394.829177 197.729004  L 396.783902 192.151963  L 398.738627 186.088191  L 400.693352 179.396165  L 402.648078 171.936126  L 404.602803 163.603378  L 406.557528 154.362408  L 408.512253 144.274961  L 410.466978 133.514468  L 412.421703 122.360356  L 414.376428 111.169359  L 416.331153 100.326697  L 418.285879 90.186398  L 420.240604 81.014825  L 422.195329 72.952624  L 424.150054 66.006576  L 426.104779 60.074861  L 428.059504 54.999164  L 430.014229 50.628132  L 431.968954 46.87217  L 433.923679 43.731488  L 435.878405 41.28774  L 437.83313 39.662033  L 439.787855 38.954407  L 441.74258 39.187281  L 443.697305 40.274667  L 445.65203 42.029803  L 447.606755 44.209467  L 449.56148 46.579325  L 451.516206 48.976867  L 453.470931 51.350174  L 455.425656 53.760949  L 457.380381 56.354276  L 459.335106 59.309345  L 461.289831 62.789978  L 463.244556 66.910314  L 465.199281 71.722078  L 467.154006 77.220426  L 469.108732 83.359684  L 471.063457 90.070035  L 473.018182 97.269984  L 474.972907 104.874091  L 476.927632 112.798155  L 478.882357 120.963708  L 480.837082 129.30149  L 482.791807 137.751558  L 484.746533 146.257809  L 486.701258 154.75713  L 488.655983 163.166877  L 490.610708 171.37681  L 492.565433 179.251257  L 494.520158 186.6439  L 496.474883 193.422469  L 498.429608 199.496045  L 500.384333 204.835738  L 502.339059 209.481171  L 504.293784 213.529866  L 506.248509 217.112469  L 508.203234 220.361356  L 510.157959 223.382002  L 512.112684 226.234909  L 514.067409 228.931864  L 516.022134 231.445501  L 517.97686 233.727327  L 519.931585 235.727737  L 521.88631 237.412226  L 523.841035 238.770373  L 525.79576 239.817005  L 527.750485 240.587246  L 529.70521 241.128352  L 531.659935 241.491202  L 533.61466 241.72347  L 535.569386 241.865419  L 537.524111 241.948258  "
           clip-path="url(#pa7eb1e082c)" />
      </g>
      <g
         id="patch_27">
        <path
           id="path432"
           style="fill:none;stroke:#000000;stroke-linecap:square;stroke-linejoin:miter;stroke-width:0.8;"
           d="M 334.330435 242.042553  L 334.330435 28.8  " />
      </g>
      <g
         id="patch_28">
        <path
           id="path435"
           style="fill:none;stroke:#000000;stroke-linecap:square;stroke-linejoin:miter;stroke-width:0.8;"
           d="M 547.2 242.042553  L 547.2 28.8  " />
      </g>
      <g
         id="patch_29">
        <path
           id="path438"
           style="fill:none;stroke:#000000;stroke-linecap:square;stroke-linejoin:miter;stroke-width:0.8;"
           d="M 334.330435 242.042553  L 547.2 242.042553  " />
      </g>
      <g
         id="patch_30">
        <path
           id="path441"
           style="fill:none;stroke:#000000;stroke-linecap:square;stroke-linejoin:miter;stroke-width:0.8;"
           d="M 334.330435 28.8  L 547.2 28.8  " />
      </g>
      <g
         id="text_22">
        <!-- MAP = 0.2938 -->
        <g
           id="g468"
           transform="translate(395.063217 22.8)scale(0.144 -0.144)">
          <use
             id="use444"
             xlink:href="#ArialMT-77" />
          <use
             id="use446"
             xlink:href="#ArialMT-65"
             x="83.300781" />
          <use
             id="use448"
             xlink:href="#ArialMT-80"
             x="150" />
          <use
             id="use450"
             xlink:href="#ArialMT-32"
             x="214.949219" />
          <use
             id="use452"
             xlink:href="#ArialMT-61"
             x="242.732422" />
          <use
             id="use454"
             xlink:href="#ArialMT-32"
             x="301.130859" />
          <use
             id="use456"
             xlink:href="#ArialMT-48"
             x="328.914062" />
          <use
             id="use458"
             xlink:href="#ArialMT-46"
             x="384.529297" />
          <use
             id="use460"
             xlink:href="#ArialMT-50"
             x="412.3125" />
          <use
             id="use462"
             xlink:href="#ArialMT-57"
             x="467.927734" />
          <use
             id="use464"
             xlink:href="#ArialMT-51"
             x="523.542969" />
          <use
             id="use466"
             xlink:href="#ArialMT-56"
             x="579.158203" />
        </g>
      </g>
    </g>
    <g
       id="axes_3">
      <g
         id="patch_31">
        <path
           id="path472"
           style="fill:#ffffff;"
           d="M 57.6 529.92  L 270.469565 529.92  L 270.469565 316.677447  L 57.6 316.677447  z " />
      </g>
      <g
         id="patch_32">
        <path
           id="path475"
           style="fill:#008000;opacity:0.4;stroke:#ffffff;stroke-linejoin:miter;"
           d="M 93.109503 529.92  L 104.021084 529.92  L 104.021084 520.013261  L 93.109503 520.013261  z "
           clip-path="url(#pbb6e41a5b6)" />
      </g>
      <g
         id="patch_33">
        <path
           id="path478"
           style="fill:#008000;opacity:0.4;stroke:#ffffff;stroke-linejoin:miter;"
           d="M 104.021084 529.92  L 114.932666 529.92  L 114.932666 500.199784  L 104.021084 500.199784  z "
           clip-path="url(#pbb6e41a5b6)" />
      </g>
      <g
         id="patch_34">
        <path
           id="path481"
           style="fill:#008000;opacity:0.4;stroke:#ffffff;stroke-linejoin:miter;"
           d="M 114.932666 529.92  L 125.844247 529.92  L 125.844247 475.432936  L 114.932666 475.432936  z "
           clip-path="url(#pbb6e41a5b6)" />
      </g>
      <g
         id="patch_35">
        <path
           id="path484"
           style="fill:#008000;opacity:0.4;stroke:#ffffff;stroke-linejoin:miter;"
           d="M 125.844247 529.92  L 136.755829 529.92  L 136.755829 430.852612  L 125.844247 430.852612  z "
           clip-path="url(#pbb6e41a5b6)" />
      </g>
      <g
         id="patch_36">
        <path
           id="path487"
           style="fill:#008000;opacity:0.4;stroke:#ffffff;stroke-linejoin:miter;"
           d="M 136.755829 529.92  L 147.66741 529.92  L 147.66741 376.365548  L 136.755829 376.365548  z "
           clip-path="url(#pbb6e41a5b6)" />
      </g>
      <g
         id="patch_37">
        <path
           id="path490"
           style="fill:#008000;opacity:0.4;stroke:#ffffff;stroke-linejoin:miter;"
           d="M 147.66741 529.92  L 158.578992 529.92  L 158.578992 326.831854  L 147.66741 326.831854  z "
           clip-path="url(#pbb6e41a5b6)" />
      </g>
      <g
         id="patch_38">
        <path
           id="path493"
           style="fill:#008000;opacity:0.4;stroke:#ffffff;stroke-linejoin:miter;"
           d="M 158.578992 529.92  L 169.490573 529.92  L 169.490573 386.272287  L 158.578992 386.272287  z "
           clip-path="url(#pbb6e41a5b6)" />
      </g>
      <g
         id="patch_39">
        <path
           id="path496"
           style="fill:#008000;opacity:0.4;stroke:#ffffff;stroke-linejoin:miter;"
           d="M 169.490573 529.92  L 180.402155 529.92  L 180.402155 415.992504  L 169.490573 415.992504  z "
           clip-path="url(#pbb6e41a5b6)" />
      </g>
      <g
         id="patch_40">
        <path
           id="path499"
           style="fill:#008000;opacity:0.4;stroke:#ffffff;stroke-linejoin:miter;"
           d="M 180.402155 529.92  L 191.313736 529.92  L 191.313736 445.71272  L 180.402155 445.71272  z "
           clip-path="url(#pbb6e41a5b6)" />
      </g>
      <g
         id="patch_41">
        <path
           id="path502"
           style="fill:#008000;opacity:0.4;stroke:#ffffff;stroke-linejoin:miter;"
           d="M 191.313736 529.92  L 202.225318 529.92  L 202.225318 460.572828  L 191.313736 460.572828  z "
           clip-path="url(#pbb6e41a5b6)" />
      </g>
      <g
         id="patch_42">
        <path
           id="path505"
           style="fill:#008000;opacity:0.4;stroke:#ffffff;stroke-linejoin:miter;"
           d="M 202.225318 529.92  L 213.136899 529.92  L 213.136899 515.059892  L 202.225318 515.059892  z "
           clip-path="url(#pbb6e41a5b6)" />
      </g>
      <g
         id="patch_43">
        <path
           id="path508"
           style="fill:#008000;opacity:0.4;stroke:#ffffff;stroke-linejoin:miter;"
           d="M 213.136899 529.92  L 224.048481 529.92  L 224.048481 524.966631  L 213.136899 524.966631  z "
           clip-path="url(#pbb6e41a5b6)" />
      </g>
      <g
         id="patch_44">
        <path
           id="path511"
           style="fill:#008000;opacity:0.4;stroke:#ffffff;stroke-linejoin:miter;"
           d="M 224.048481 529.92  L 234.960062 529.92  L 234.960062 520.013261  L 224.048481 520.013261  z "
           clip-path="url(#pbb6e41a5b6)" />
      </g>
      <g
         id="matplotlib.axis_5">
        <g
           id="xtick_7">
          <g
             id="line2d_20">
            <g
               id="g516">
              <use
                 id="use514"
                 y="529.92"
                 xlink:href="#m85cca8d064"
                 x="97.091959"
                 style="stroke:#000000;stroke-width:0.8;" />
            </g>
          </g>
          <g
             id="text_23">
            <!-- 0.1 -->
            <g
               id="g525"
               transform="translate(87.083959 547.22725)scale(0.144 -0.144)">
              <use
                 id="use519"
                 xlink:href="#ArialMT-48" />
              <use
                 id="use521"
                 xlink:href="#ArialMT-46"
                 x="55.615234" />
              <use
                 id="use523"
                 xlink:href="#ArialMT-49"
                 x="83.398438" />
            </g>
          </g>
        </g>
        <g
           id="xtick_8">
          <g
             id="line2d_21">
            <g
               id="g531">
              <use
                 id="use529"
                 y="529.92"
                 xlink:href="#m85cca8d064"
                 x="168.095997"
                 style="stroke:#000000;stroke-width:0.8;" />
            </g>
          </g>
          <g
             id="text_24">
            <!-- 0.2 -->
            <g
               id="g540"
               transform="translate(158.087997 547.22725)scale(0.144 -0.144)">
              <use
                 id="use534"
                 xlink:href="#ArialMT-48" />
              <use
                 id="use536"
                 xlink:href="#ArialMT-46"
                 x="55.615234" />
              <use
                 id="use538"
                 xlink:href="#ArialMT-50"
                 x="83.398438" />
            </g>
          </g>
        </g>
        <g
           id="xtick_9">
          <g
             id="line2d_22">
            <g
               id="g546">
              <use
                 id="use544"
                 y="529.92"
                 xlink:href="#m85cca8d064"
                 x="239.100035"
                 style="stroke:#000000;stroke-width:0.8;" />
            </g>
          </g>
          <g
             id="text_25">
            <!-- 0.3 -->
            <g
               id="g555"
               transform="translate(229.092035 547.22725)scale(0.144 -0.144)">
              <use
                 id="use549"
                 xlink:href="#ArialMT-48" />
              <use
                 id="use551"
                 xlink:href="#ArialMT-46"
                 x="55.615234" />
              <use
                 id="use553"
                 xlink:href="#ArialMT-51"
                 x="83.398438" />
            </g>
          </g>
        </g>
        <g
           id="text_26">
          <!-- Bias -->
          <g
             id="g567"
             transform="translate(150.028533 564.3965)scale(0.144 -0.144)">
            <use
               id="use559"
               xlink:href="#ArialMT-66" />
            <use
               id="use561"
               xlink:href="#ArialMT-105"
               x="66.699219" />
            <use
               id="use563"
               xlink:href="#ArialMT-97"
               x="88.916016" />
            <use
               id="use565"
               xlink:href="#ArialMT-115"
               x="144.53125" />
          </g>
        </g>
      </g>
      <g
         id="matplotlib.axis_6">
        <g
           id="ytick_12">
          <g
             id="line2d_23">
            <g
               id="g573">
              <use
                 id="use571"
                 y="529.92"
                 xlink:href="#m9c51d424c4"
                 x="57.6"
                 style="stroke:#000000;stroke-width:0.8;" />
            </g>
          </g>
          <g
             id="text_27">
            <!-- 0 -->
            <g
               id="g578"
               transform="translate(42.59225 535.073625)scale(0.144 -0.144)">
              <use
                 id="use576"
                 xlink:href="#ArialMT-48" />
            </g>
          </g>
        </g>
        <g
           id="ytick_13">
          <g
             id="line2d_24">
            <g
               id="g584">
              <use
                 id="use582"
                 y="491.859422"
                 xlink:href="#m9c51d424c4"
                 x="57.6"
                 style="stroke:#000000;stroke-width:0.8;" />
            </g>
          </g>
          <g
             id="text_28">
            <!-- 2 -->
            <g
               id="g589"
               transform="translate(42.59225 497.013047)scale(0.144 -0.144)">
              <use
                 id="use587"
                 xlink:href="#ArialMT-50" />
            </g>
          </g>
        </g>
        <g
           id="ytick_14">
          <g
             id="line2d_25">
            <g
               id="g595">
              <use
                 id="use593"
                 y="453.798845"
                 xlink:href="#m9c51d424c4"
                 x="57.6"
                 style="stroke:#000000;stroke-width:0.8;" />
            </g>
          </g>
          <g
             id="text_29">
            <!-- 5 -->
            <g
               id="g600"
               transform="translate(42.59225 458.95247)scale(0.144 -0.144)">
              <use
                 id="use598"
                 xlink:href="#ArialMT-53" />
            </g>
          </g>
        </g>
        <g
           id="ytick_15">
          <g
             id="line2d_26">
            <g
               id="g606">
              <use
                 id="use604"
                 y="415.738267"
                 xlink:href="#m9c51d424c4"
                 x="57.6"
                 style="stroke:#000000;stroke-width:0.8;" />
            </g>
          </g>
          <g
             id="text_30">
            <!-- 7 -->
            <g
               id="g611"
               transform="translate(42.59225 420.891892)scale(0.144 -0.144)">
              <use
                 id="use609"
                 xlink:href="#ArialMT-55" />
            </g>
          </g>
        </g>
        <g
           id="ytick_16">
          <g
             id="line2d_27">
            <g
               id="g617">
              <use
                 id="use615"
                 y="377.677689"
                 xlink:href="#m9c51d424c4"
                 x="57.6"
                 style="stroke:#000000;stroke-width:0.8;" />
            </g>
          </g>
          <g
             id="text_31">
            <!-- 10 -->
            <g
               id="g624"
               transform="translate(34.5845 382.831314)scale(0.144 -0.144)">
              <use
                 id="use620"
                 xlink:href="#ArialMT-49" />
              <use
                 id="use622"
                 xlink:href="#ArialMT-48"
                 x="55.615234" />
            </g>
          </g>
        </g>
        <g
           id="ytick_17">
          <g
             id="line2d_28">
            <g
               id="g630">
              <use
                 id="use628"
                 y="339.617112"
                 xlink:href="#m9c51d424c4"
                 x="57.6"
                 style="stroke:#000000;stroke-width:0.8;" />
            </g>
          </g>
          <g
             id="text_32">
            <!-- 12 -->
            <g
               id="g637"
               transform="translate(34.5845 344.770737)scale(0.144 -0.144)">
              <use
                 id="use633"
                 xlink:href="#ArialMT-49" />
              <use
                 id="use635"
                 xlink:href="#ArialMT-50"
                 x="55.615234" />
            </g>
          </g>
        </g>
        <g
           id="text_33">
          <!-- Density -->
          <g
             id="g655"
             transform="translate(27.55375 447.306223)rotate(-90)scale(0.144 -0.144)">
            <use
               id="use641"
               xlink:href="#ArialMT-68" />
            <use
               id="use643"
               xlink:href="#ArialMT-101"
               x="72.216797" />
            <use
               id="use645"
               xlink:href="#ArialMT-110"
               x="127.832031" />
            <use
               id="use647"
               xlink:href="#ArialMT-115"
               x="183.447266" />
            <use
               id="use649"
               xlink:href="#ArialMT-105"
               x="233.447266" />
            <use
               id="use651"
               xlink:href="#ArialMT-116"
               x="255.664062" />
            <use
               id="use653"
               xlink:href="#ArialMT-121"
               x="283.447266" />
          </g>
        </g>
      </g>
      <g
         id="line2d_29">
        <path
           id="path659"
           style="fill:none;stroke:#008000;stroke-linecap:round;stroke-width:1.5;"
           d="M 67.275889 529.888826  L 69.230614 529.859081  L 71.18534 529.806476  L 73.140065 529.71807  L 75.09479 529.57677  L 77.049515 529.361694  L 79.00424 529.04934  L 80.958965 528.615386  L 82.91369 528.03663  L 84.868415 527.292392  L 86.82314 526.364852  L 88.777866 525.238364  L 90.732591 523.898543  L 92.687316 522.332393  L 94.642041 520.53046  L 96.596766 518.490799  L 98.551491 516.222841  L 100.506216 513.748089  L 102.460941 511.094894  L 104.415667 508.286767  L 106.370392 505.327035  L 108.325117 502.185409  L 110.279842 498.792631  L 112.234567 495.046971  L 114.189292 490.83194  L 116.144017 486.040111  L 118.098742 480.595585  L 120.053467 474.468297  L 122.008193 467.676653  L 123.962918 460.279155  L 125.917643 452.359068  L 127.872368 444.007798  L 129.827093 435.312408  L 131.781818 426.35117  L 133.736543 417.198763  L 135.691268 407.940111  L 137.645994 398.689252  L 139.600719 389.607666  L 141.555444 380.915902  L 143.510169 372.893522  L 145.464894 365.865016  L 147.419619 360.172386  L 149.374344 356.137445  L 151.329069 354.018221  L 153.283794 353.964818  L 155.23852 355.98142  L 157.193245 359.902886  L 159.14797 365.395099  L 161.102695 371.98589  L 163.05742 379.126902  L 165.012145 386.277408  L 166.96687 392.992348  L 168.921595 398.992703  L 170.876321 404.199408  L 172.831046 408.721777  L 174.785771 412.804602  L 176.740496 416.750047  L 178.695221 420.83706  L 180.649946 425.260206  L 182.604671 430.102147  L 184.559396 435.342301  L 186.514121 440.892621  L 188.468847 446.643951  L 190.423572 452.505349  L 192.378297 458.424022  L 194.333022 464.382587  L 196.287747 470.3794  L 198.242472 476.403161  L 200.197197 482.413334  L 202.151922 488.333657  L 204.106648 494.059648  L 206.061373 499.475466  L 208.016098 504.472824  L 209.970823 508.965408  L 211.925548 512.895446  L 213.880273 516.232949  L 215.834998 518.970942  L 217.789723 521.12081  L 219.744448 522.7107  L 221.699174 523.78747  L 223.653899 524.420257  L 225.608624 524.702204  L 227.563349 524.747071  L 229.518074 524.679188  L 231.472799 524.617885  L 233.427524 524.660087  L 235.382249 524.866041  L 237.336974 525.252548  L 239.2917 525.79575  L 241.246425 526.442429  L 243.20115 527.126115  L 245.155875 527.783225  L 247.1106 528.365094  L 249.065325 528.843748  L 251.02005 529.211548  L 252.974775 529.476549  L 254.929501 529.65607  L 256.884226 529.770645  L 258.838951 529.839642  L 260.793676 529.878895  "
           clip-path="url(#pbb6e41a5b6)" />
      </g>
      <g
         id="patch_45">
        <path
           id="path662"
           style="fill:none;stroke:#000000;stroke-linecap:square;stroke-linejoin:miter;stroke-width:0.8;"
           d="M 57.6 529.92  L 57.6 316.677447  " />
      </g>
      <g
         id="patch_46">
        <path
           id="path665"
           style="fill:none;stroke:#000000;stroke-linecap:square;stroke-linejoin:miter;stroke-width:0.8;"
           d="M 270.469565 529.92  L 270.469565 316.677447  " />
      </g>
      <g
         id="patch_47">
        <path
           id="path668"
           style="fill:none;stroke:#000000;stroke-linecap:square;stroke-linejoin:miter;stroke-width:0.8;"
           d="M 57.6 529.92  L 270.469565 529.92  " />
      </g>
      <g
         id="patch_48">
        <path
           id="path671"
           style="fill:none;stroke:#000000;stroke-linecap:square;stroke-linejoin:miter;stroke-width:0.8;"
           d="M 57.6 316.677447  L 270.469565 316.677447  " />
      </g>
      <g
         id="text_34">
        <!-- MAP = 0.1791 -->
        <g
           id="g698"
           transform="translate(118.332783 310.677447)scale(0.144 -0.144)">
          <use
             id="use674"
             xlink:href="#ArialMT-77" />
          <use
             id="use676"
             xlink:href="#ArialMT-65"
             x="83.300781" />
          <use
             id="use678"
             xlink:href="#ArialMT-80"
             x="150" />
          <use
             id="use680"
             xlink:href="#ArialMT-32"
             x="214.949219" />
          <use
             id="use682"
             xlink:href="#ArialMT-61"
             x="242.732422" />
          <use
             id="use684"
             xlink:href="#ArialMT-32"
             x="301.130859" />
          <use
             id="use686"
             xlink:href="#ArialMT-48"
             x="328.914062" />
          <use
             id="use688"
             xlink:href="#ArialMT-46"
             x="384.529297" />
          <use
             id="use690"
             xlink:href="#ArialMT-49"
             x="412.3125" />
          <use
             id="use692"
             xlink:href="#ArialMT-55"
             x="467.927734" />
          <use
             id="use694"
             xlink:href="#ArialMT-57"
             x="523.542969" />
          <use
             id="use696"
             xlink:href="#ArialMT-49"
             x="579.158203" />
        </g>
      </g>
    </g>
    <g
       id="axes_4">
      <g
         id="patch_49">
        <path
           id="path702"
           style="fill:#ffffff;"
           d="M 334.330435 529.92  L 547.2 529.92  L 547.2 316.677447  L 334.330435 316.677447  z " />
      </g>
      <g
         id="patch_50">
        <path
           id="path705"
           style="fill:#008000;opacity:0.4;stroke:#ffffff;stroke-linejoin:miter;"
           d="M 361.403453 529.92  L 368.304476 529.92  L 368.304476 525.937879  L 361.403453 525.937879  z "
           clip-path="url(#p00b801d944)" />
      </g>
      <g
         id="patch_51">
        <path
           id="path708"
           style="fill:#008000;opacity:0.4;stroke:#ffffff;stroke-linejoin:miter;"
           d="M 368.304476 529.92  L 375.205499 529.92  L 375.205499 529.92  L 368.304476 529.92  z "
           clip-path="url(#p00b801d944)" />
      </g>
      <g
         id="patch_52">
        <path
           id="path711"
           style="fill:#008000;opacity:0.4;stroke:#ffffff;stroke-linejoin:miter;"
           d="M 375.205499 529.92  L 382.106522 529.92  L 382.106522 529.92  L 375.205499 529.92  z "
           clip-path="url(#p00b801d944)" />
      </g>
      <g
         id="patch_53">
        <path
           id="path714"
           style="fill:#008000;opacity:0.4;stroke:#ffffff;stroke-linejoin:miter;"
           d="M 382.106522 529.92  L 389.007545 529.92  L 389.007545 529.92  L 382.106522 529.92  z "
           clip-path="url(#p00b801d944)" />
      </g>
      <g
         id="patch_54">
        <path
           id="path717"
           style="fill:#008000;opacity:0.4;stroke:#ffffff;stroke-linejoin:miter;"
           d="M 389.007545 529.92  L 395.908568 529.92  L 395.908568 529.92  L 389.007545 529.92  z "
           clip-path="url(#p00b801d944)" />
      </g>
      <g
         id="patch_55">
        <path
           id="path720"
           style="fill:#008000;opacity:0.4;stroke:#ffffff;stroke-linejoin:miter;"
           d="M 395.908568 529.92  L 402.809591 529.92  L 402.809591 529.92  L 395.908568 529.92  z "
           clip-path="url(#p00b801d944)" />
      </g>
      <g
         id="patch_56">
        <path
           id="path723"
           style="fill:#008000;opacity:0.4;stroke:#ffffff;stroke-linejoin:miter;"
           d="M 402.809591 529.92  L 409.710614 529.92  L 409.710614 529.92  L 402.809591 529.92  z "
           clip-path="url(#p00b801d944)" />
      </g>
      <g
         id="patch_57">
        <path
           id="path726"
           style="fill:#008000;opacity:0.4;stroke:#ffffff;stroke-linejoin:miter;"
           d="M 409.710614 529.92  L 416.611637 529.92  L 416.611637 529.92  L 409.710614 529.92  z "
           clip-path="url(#p00b801d944)" />
      </g>
      <g
         id="patch_58">
        <path
           id="path729"
           style="fill:#008000;opacity:0.4;stroke:#ffffff;stroke-linejoin:miter;"
           d="M 416.611637 529.92  L 423.51266 529.92  L 423.51266 529.92  L 416.611637 529.92  z "
           clip-path="url(#p00b801d944)" />
      </g>
      <g
         id="patch_59">
        <path
           id="path732"
           style="fill:#008000;opacity:0.4;stroke:#ffffff;stroke-linejoin:miter;"
           d="M 423.51266 529.92  L 430.413683 529.92  L 430.413683 529.92  L 423.51266 529.92  z "
           clip-path="url(#p00b801d944)" />
      </g>
      <g
         id="patch_60">
        <path
           id="path735"
           style="fill:#008000;opacity:0.4;stroke:#ffffff;stroke-linejoin:miter;"
           d="M 430.413683 529.92  L 437.314706 529.92  L 437.314706 529.92  L 430.413683 529.92  z "
           clip-path="url(#p00b801d944)" />
      </g>
      <g
         id="patch_61">
        <path
           id="path738"
           style="fill:#008000;opacity:0.4;stroke:#ffffff;stroke-linejoin:miter;"
           d="M 437.314706 529.92  L 444.215729 529.92  L 444.215729 529.92  L 437.314706 529.92  z "
           clip-path="url(#p00b801d944)" />
      </g>
      <g
         id="patch_62">
        <path
           id="path741"
           style="fill:#008000;opacity:0.4;stroke:#ffffff;stroke-linejoin:miter;"
           d="M 444.215729 529.92  L 451.116752 529.92  L 451.116752 529.92  L 444.215729 529.92  z "
           clip-path="url(#p00b801d944)" />
      </g>
      <g
         id="patch_63">
        <path
           id="path744"
           style="fill:#008000;opacity:0.4;stroke:#ffffff;stroke-linejoin:miter;"
           d="M 451.116752 529.92  L 458.017775 529.92  L 458.017775 529.92  L 451.116752 529.92  z "
           clip-path="url(#p00b801d944)" />
      </g>
      <g
         id="patch_64">
        <path
           id="path747"
           style="fill:#008000;opacity:0.4;stroke:#ffffff;stroke-linejoin:miter;"
           d="M 458.017775 529.92  L 464.918798 529.92  L 464.918798 517.973638  L 458.017775 517.973638  z "
           clip-path="url(#p00b801d944)" />
      </g>
      <g
         id="patch_65">
        <path
           id="path750"
           style="fill:#008000;opacity:0.4;stroke:#ffffff;stroke-linejoin:miter;"
           d="M 464.918798 529.92  L 471.819821 529.92  L 471.819821 502.045156  L 464.918798 502.045156  z "
           clip-path="url(#p00b801d944)" />
      </g>
      <g
         id="patch_66">
        <path
           id="path753"
           style="fill:#008000;opacity:0.4;stroke:#ffffff;stroke-linejoin:miter;"
           d="M 471.819821 529.92  L 478.720844 529.92  L 478.720844 506.027277  L 471.819821 506.027277  z "
           clip-path="url(#p00b801d944)" />
      </g>
      <g
         id="patch_67">
        <path
           id="path756"
           style="fill:#008000;opacity:0.4;stroke:#ffffff;stroke-linejoin:miter;"
           d="M 478.720844 529.92  L 485.621867 529.92  L 485.621867 466.206072  L 478.720844 466.206072  z "
           clip-path="url(#p00b801d944)" />
      </g>
      <g
         id="patch_68">
        <path
           id="path759"
           style="fill:#008000;opacity:0.4;stroke:#ffffff;stroke-linejoin:miter;"
           d="M 485.621867 529.92  L 492.52289 529.92  L 492.52289 418.420626  L 485.621867 418.420626  z "
           clip-path="url(#p00b801d944)" />
      </g>
      <g
         id="patch_69">
        <path
           id="path762"
           style="fill:#008000;opacity:0.4;stroke:#ffffff;stroke-linejoin:miter;"
           d="M 492.52289 529.92  L 499.423913 529.92  L 499.423913 426.384867  L 492.52289 426.384867  z "
           clip-path="url(#p00b801d944)" />
      </g>
      <g
         id="patch_70">
        <path
           id="path765"
           style="fill:#008000;opacity:0.4;stroke:#ffffff;stroke-linejoin:miter;"
           d="M 499.423913 529.92  L 506.324936 529.92  L 506.324936 394.527903  L 499.423913 394.527903  z "
           clip-path="url(#p00b801d944)" />
      </g>
      <g
         id="patch_71">
        <path
           id="path768"
           style="fill:#008000;opacity:0.4;stroke:#ffffff;stroke-linejoin:miter;"
           d="M 506.324936 529.92  L 513.225959 529.92  L 513.225959 326.831854  L 506.324936 326.831854  z "
           clip-path="url(#p00b801d944)" />
      </g>
      <g
         id="patch_72">
        <path
           id="path771"
           style="fill:#008000;opacity:0.4;stroke:#ffffff;stroke-linejoin:miter;"
           d="M 513.225959 529.92  L 520.126982 529.92  L 520.126982 418.420626  L 513.225959 418.420626  z "
           clip-path="url(#p00b801d944)" />
      </g>
      <g
         id="matplotlib.axis_7">
        <g
           id="xtick_10">
          <g
             id="line2d_30">
            <g
               id="g776">
              <use
                 id="use774"
                 y="529.92"
                 xlink:href="#m85cca8d064"
                 x="372.927496"
                 style="stroke:#000000;stroke-width:0.8;" />
            </g>
          </g>
          <g
             id="text_35">
            <!-- 0.2 -->
            <g
               id="g785"
               transform="translate(362.919496 547.22725)scale(0.144 -0.144)">
              <use
                 id="use779"
                 xlink:href="#ArialMT-48" />
              <use
                 id="use781"
                 xlink:href="#ArialMT-46"
                 x="55.615234" />
              <use
                 id="use783"
                 xlink:href="#ArialMT-50"
                 x="83.398438" />
            </g>
          </g>
        </g>
        <g
           id="xtick_11">
          <g
             id="line2d_31">
            <g
               id="g791">
              <use
                 id="use789"
                 y="529.92"
                 xlink:href="#m85cca8d064"
                 x="471.115174"
                 style="stroke:#000000;stroke-width:0.8;" />
            </g>
          </g>
          <g
             id="text_36">
            <!-- 0.4 -->
            <g
               id="g800"
               transform="translate(461.107174 547.22725)scale(0.144 -0.144)">
              <use
                 id="use794"
                 xlink:href="#ArialMT-48" />
              <use
                 id="use796"
                 xlink:href="#ArialMT-46"
                 x="55.615234" />
              <use
                 id="use798"
                 xlink:href="#ArialMT-52"
                 x="83.398438" />
            </g>
          </g>
        </g>
        <g
           id="text_37">
          <!-- Speed -->
          <g
             id="g814"
             transform="translate(419.947092 564.572)scale(0.144 -0.144)">
            <use
               id="use804"
               xlink:href="#ArialMT-83" />
            <use
               id="use806"
               xlink:href="#ArialMT-112"
               x="66.699219" />
            <use
               id="use808"
               xlink:href="#ArialMT-101"
               x="122.314453" />
            <use
               id="use810"
               xlink:href="#ArialMT-101"
               x="177.929688" />
            <use
               id="use812"
               xlink:href="#ArialMT-100"
               x="233.544922" />
          </g>
        </g>
      </g>
      <g
         id="matplotlib.axis_8">
        <g
           id="ytick_18">
          <g
             id="line2d_32">
            <g
               id="g820">
              <use
                 id="use818"
                 y="529.92"
                 xlink:href="#m9c51d424c4"
                 x="334.330435"
                 style="stroke:#000000;stroke-width:0.8;" />
            </g>
          </g>
          <g
             id="text_38">
            <!-- 0 -->
            <g
               id="g825"
               transform="translate(319.322685 535.073625)scale(0.144 -0.144)">
              <use
                 id="use823"
                 xlink:href="#ArialMT-48" />
            </g>
          </g>
        </g>
        <g
           id="ytick_19">
          <g
             id="line2d_33">
            <g
               id="g831">
              <use
                 id="use829"
                 y="473.944127"
                 xlink:href="#m9c51d424c4"
                 x="334.330435"
                 style="stroke:#000000;stroke-width:0.8;" />
            </g>
          </g>
          <g
             id="text_39">
            <!-- 5 -->
            <g
               id="g836"
               transform="translate(319.322685 479.097752)scale(0.144 -0.144)">
              <use
                 id="use834"
                 xlink:href="#ArialMT-53" />
            </g>
          </g>
        </g>
        <g
           id="ytick_20">
          <g
             id="line2d_34">
            <g
               id="g842">
              <use
                 id="use840"
                 y="417.968253"
                 xlink:href="#m9c51d424c4"
                 x="334.330435"
                 style="stroke:#000000;stroke-width:0.8;" />
            </g>
          </g>
          <g
             id="text_40">
            <!-- 10 -->
            <g
               id="g849"
               transform="translate(311.314935 423.121878)scale(0.144 -0.144)">
              <use
                 id="use845"
                 xlink:href="#ArialMT-49" />
              <use
                 id="use847"
                 xlink:href="#ArialMT-48"
                 x="55.615234" />
            </g>
          </g>
        </g>
        <g
           id="ytick_21">
          <g
             id="line2d_35">
            <g
               id="g855">
              <use
                 id="use853"
                 y="361.99238"
                 xlink:href="#m9c51d424c4"
                 x="334.330435"
                 style="stroke:#000000;stroke-width:0.8;" />
            </g>
          </g>
          <g
             id="text_41">
            <!-- 15 -->
            <g
               id="g862"
               transform="translate(311.314935 367.146005)scale(0.144 -0.144)">
              <use
                 id="use858"
                 xlink:href="#ArialMT-49" />
              <use
                 id="use860"
                 xlink:href="#ArialMT-53"
                 x="55.615234" />
            </g>
          </g>
        </g>
      </g>
      <g
         id="line2d_36">
        <path
           id="path867"
           style="fill:none;stroke:#008000;stroke-linecap:round;stroke-width:1.5;"
           d="M 344.006324 529.898574  L 345.961049 529.864618  L 347.915774 529.792151  L 349.870499 529.656411  L 351.825225 529.434645  L 353.77995 529.121834  L 355.734675 528.747725  L 357.6894 528.382316  L 359.644125 528.118615  L 361.59885 528.035276  L 363.553575 528.158873  L 365.5083 528.450277  L 367.463026 528.824577  L 369.417751 529.190828  L 371.372476 529.486509  L 373.327201 529.689839  L 375.281926 529.81086  L 377.236651 529.873779  L 379.191376 529.902518  L 381.146101 529.914095  L 383.100826 529.918218  L 385.055552 529.91952  L 387.010277 529.919884  L 388.965002 529.919975  L 390.919727 529.919995  L 392.874452 529.919999  L 394.829177 529.92  L 396.783902 529.92  L 398.738627 529.92  L 400.693352 529.92  L 402.648078 529.92  L 404.602803 529.92  L 406.557528 529.92  L 408.512253 529.92  L 410.466978 529.92  L 412.421703 529.92  L 414.376428 529.92  L 416.331153 529.92  L 418.285879 529.92  L 420.240604 529.92  L 422.195329 529.92  L 424.150054 529.92  L 426.104779 529.92  L 428.059504 529.919997  L 430.014229 529.919984  L 431.968954 529.919917  L 433.923679 529.919619  L 435.878405 529.918427  L 437.83313 529.914204  L 439.787855 529.900913  L 441.74258 529.863817  L 443.697305 529.772101  L 445.65203 529.5715  L 447.606755 529.183854  L 449.56148 528.522571  L 451.516206 527.526089  L 453.470931 526.19399  L 455.425656 524.594673  L 457.380381 522.822507  L 459.335106 520.923307  L 461.289831 518.848386  L 463.244556 516.487988  L 465.199281 513.76406  L 467.154006 510.692361  L 469.108732 507.335103  L 471.063457 503.66209  L 473.018182 499.433011  L 474.972907 494.216457  L 476.927632 487.572116  L 478.882357 479.316404  L 480.837082 469.734121  L 482.791807 459.60516  L 484.746533 449.981063  L 486.701258 441.767393  L 488.655983 435.304364  L 490.610708 430.192273  L 492.565433 425.495469  L 494.520158 420.220846  L 496.474883 413.780591  L 498.429608 406.177612  L 500.384333 397.880118  L 502.339059 389.583875  L 504.293784 382.099639  L 506.248509 376.428086  L 508.203234 373.85814  L 510.157959 375.847121  L 512.112684 383.587072  L 514.067409 397.423938  L 516.022134 416.467318  L 517.97686 438.663838  L 519.931585 461.34595  L 521.88631 482.000142  L 523.841035 498.903989  L 525.79576 511.394597  L 527.750485 519.744901  L 529.70521 524.797958  L 531.659935 527.564391  L 533.61466 528.933173  L 535.569386 529.544423  L 537.524111 529.790447  "
           clip-path="url(#p00b801d944)" />
      </g>
      <g
         id="patch_73">
        <path
           id="path870"
           style="fill:none;stroke:#000000;stroke-linecap:square;stroke-linejoin:miter;stroke-width:0.8;"
           d="M 334.330435 529.92  L 334.330435 316.677447  " />
      </g>
      <g
         id="patch_74">
        <path
           id="path873"
           style="fill:none;stroke:#000000;stroke-linecap:square;stroke-linejoin:miter;stroke-width:0.8;"
           d="M 547.2 529.92  L 547.2 316.677447  " />
      </g>
      <g
         id="patch_75">
        <path
           id="path876"
           style="fill:none;stroke:#000000;stroke-linecap:square;stroke-linejoin:miter;stroke-width:0.8;"
           d="M 334.330435 529.92  L 547.2 529.92  " />
      </g>
      <g
         id="patch_76">
        <path
           id="path879"
           style="fill:none;stroke:#000000;stroke-linecap:square;stroke-linejoin:miter;stroke-width:0.8;"
           d="M 334.330435 316.677447  L 547.2 316.677447  " />
      </g>
      <g
         id="text_42">
        <!-- MAP = 0.4755 -->
        <g
           id="g906"
           transform="translate(395.063217 310.677447)scale(0.144 -0.144)">
          <use
             id="use882"
             xlink:href="#ArialMT-77" />
          <use
             id="use884"
             xlink:href="#ArialMT-65"
             x="83.300781" />
          <use
             id="use886"
             xlink:href="#ArialMT-80"
             x="150" />
          <use
             id="use888"
             xlink:href="#ArialMT-32"
             x="214.949219" />
          <use
             id="use890"
             xlink:href="#ArialMT-61"
             x="242.732422" />
          <use
             id="use892"
             xlink:href="#ArialMT-32"
             x="301.130859" />
          <use
             id="use894"
             xlink:href="#ArialMT-48"
             x="328.914062" />
          <use
             id="use896"
             xlink:href="#ArialMT-46"
             x="384.529297" />
          <use
             id="use898"
             xlink:href="#ArialMT-52"
             x="412.3125" />
          <use
             id="use900"
             xlink:href="#ArialMT-55"
             x="467.927734" />
          <use
             id="use902"
             xlink:href="#ArialMT-53"
             x="523.542969" />
          <use
             id="use904"
             xlink:href="#ArialMT-53"
             x="579.158203" />
        </g>
      </g>
    </g>
  </g>
  <defs
     id="defs923">
    <clipPath
       id="pda6c023946">
      <rect
         id="rect911"
         y="28.8"
         x="57.6"
         width="212.869565"
         height="213.242553" />
    </clipPath>
    <clipPath
       id="pa7eb1e082c">
      <rect
         id="rect914"
         y="28.8"
         x="334.330435"
         width="212.869565"
         height="213.242553" />
    </clipPath>
    <clipPath
       id="pbb6e41a5b6">
      <rect
         id="rect917"
         y="316.677447"
         x="57.6"
         width="212.869565"
         height="213.242553" />
    </clipPath>
    <clipPath
       id="p00b801d944">
      <rect
         id="rect920"
         y="316.677447"
         x="334.330435"
         width="212.869565"
         height="213.242553" />
    </clipPath>
  </defs>
</svg>
